<?xml version="1.0" encoding="UTF-8" standalone="no"?>
<!DOCTYPE svg PUBLIC "-//W3C//DTD SVG 1.1//EN" "http://www.w3.org/Graphics/SVG/1.1/DTD/svg11.dtd">
<svg xmlns:dc="http://purl.org/dc/elements/1.1/" version="1.1" xmlns:xl="http://www.w3.org/1999/xlink" xmlns="http://www.w3.org/2000/svg" viewBox="180.1914 34.032227 1327 1190.9678" width="1327" height="1190.9678">
  <defs>
    <linearGradient x1="0" x2="1" id="Gradient" gradientUnits="userSpaceOnUse">
      <stop offset="0" stop-color="#e3f2fd"/>
      <stop offset="0" stop-color="#bbdffb"/>
      <stop offset="1" stop-color="#90caf9"/>
    </linearGradient>
    <linearGradient id="Obj_Gradient" xl:href="#Gradient" gradientTransform="translate(218.6914 169.98438) rotate(45) scale(325.2691)"/>
    <linearGradient x1="0" x2="1" id="Gradient_2" gradientUnits="userSpaceOnUse">
      <stop offset="0" stop-color="#e8f5e8"/>
      <stop offset="0" stop-color="#b7dfb8"/>
      <stop offset="1" stop-color="#81c784"/>
    </linearGradient>
    <linearGradient id="Obj_Gradient_2" xl:href="#Gradient_2" gradientTransform="translate(533.6914 174.98438) rotate(45) scale(395.9798)"/>
    <linearGradient x1="0" x2="1" id="Gradient_3" gradientUnits="userSpaceOnUse">
      <stop offset="0" stop-color="#fff3e0"/>
      <stop offset="0" stop-color="#ffd69c"/>
      <stop offset="1" stop-color="#ffb74d"/>
    </linearGradient>
    <linearGradient id="Obj_Gradient_3" xl:href="#Gradient_3" gradientTransform="translate(883.6914 173.48438) rotate(45) scale(395.9798)"/>
    <linearGradient x1="0" x2="1" id="Gradient_4" gradientUnits="userSpaceOnUse">
      <stop offset="0" stop-color="#fce4ec"/>
      <stop offset="0" stop-color="#f9bbcf"/>
      <stop offset="1" stop-color="#f48fb1"/>
    </linearGradient>
    <linearGradient id="Obj_Gradient_4" xl:href="#Gradient_4" gradientTransform="translate(1233.6914 174.98438) rotate(45) scale(339.41125)"/>
    <linearGradient x1="0" x2="1" id="Gradient_5" gradientUnits="userSpaceOnUse">
      <stop offset="0" stop-color="#f3e5f5"/>
      <stop offset="0" stop-color="#e1bde7"/>
      <stop offset="1" stop-color="#ce93d8"/>
    </linearGradient>
    <linearGradient id="Obj_Gradient_5" xl:href="#Gradient_5" gradientTransform="translate(508.6914 512.5469) rotate(45) scale(410.12193)"/>
    <linearGradient x1="0" x2="1" id="Gradient_6" gradientUnits="userSpaceOnUse">
      <stop offset="0" stop-color="#e0f2f1"/>
      <stop offset="0" stop-color="#b2dfdb"/>
      <stop offset="1" stop-color="#80cbc4"/>
    </linearGradient>
    <linearGradient id="Obj_Gradient_6" xl:href="#Gradient_6" gradientTransform="translate(883.6914 507.5469) rotate(45) scale(424.26407)"/>
    <marker orient="auto" overflow="visible" markerUnits="strokeWidth" id="FilledArrow_Marker" stroke-linejoin="miter" stroke-miterlimit="10" viewBox="-1 -3 6 6" markerWidth="6" markerHeight="6" color="#4caf50">
      <g>
        <path d="M 3.7333333 0 L 0 -1.4 L 0 1.4 Z" fill="currentColor" stroke="currentColor" stroke-width="1"/>
      </g>
    </marker>
    <marker orient="auto" overflow="visible" markerUnits="strokeWidth" id="FilledArrow_Marker_2" stroke-linejoin="miter" stroke-miterlimit="10" viewBox="-1 -3 6 6" markerWidth="6" markerHeight="6" color="#2196f3">
      <g>
        <path d="M 3.7333333 0 L 0 -1.4 L 0 1.4 Z" fill="currentColor" stroke="currentColor" stroke-width="1"/>
      </g>
    </marker>
    <linearGradient id="Obj_Gradient_7" xl:href="#Gradient" gradientTransform="translate(814.4414 1001.0117) rotate(45) scale(19.091883)"/>
    <linearGradient id="Obj_Gradient_8" xl:href="#Gradient_2" gradientTransform="translate(814.4414 1021.0117) rotate(45) scale(19.091883)"/>
    <linearGradient id="Obj_Gradient_9" xl:href="#Gradient_3" gradientTransform="translate(814.4414 1041.0117) rotate(45) scale(19.091883)"/>
    <linearGradient id="Obj_Gradient_10" xl:href="#Gradient_4" gradientTransform="translate(964.4414 1001.0117) rotate(45) scale(19.091883)"/>
    <linearGradient id="Obj_Gradient_11" xl:href="#Gradient_5" gradientTransform="translate(964.4414 1021.0117) rotate(45) scale(19.091883)"/>
    <linearGradient id="Obj_Gradient_12" xl:href="#Gradient_6" gradientTransform="translate(964.4414 1041.0117) rotate(45) scale(19.091883)"/>
    <marker orient="auto" overflow="visible" markerUnits="strokeWidth" id="FilledArrow_Marker_3" stroke-linejoin="miter" stroke-miterlimit="10" viewBox="-1 -3 6 6" markerWidth="6" markerHeight="6" color="#2196f3">
      <g>
        <path d="M 3.7333333 0 L 0 -1.4 L 0 1.4 Z" fill="currentColor" stroke="currentColor" stroke-width="1"/>
      </g>
    </marker>
    <marker orient="auto" overflow="visible" markerUnits="strokeWidth" id="FilledArrow_Marker_4" stroke-linejoin="miter" stroke-miterlimit="10" viewBox="-1 -3 6 6" markerWidth="6" markerHeight="6" color="#2196f3">
      <g>
        <path d="M 3.7333333 0 L 0 -1.4 L 0 1.4 Z" fill="currentColor" stroke="currentColor" stroke-width="1"/>
      </g>
    </marker>
    <marker orient="auto" overflow="visible" markerUnits="strokeWidth" id="FilledArrow_Marker_5" stroke-linejoin="miter" stroke-miterlimit="10" viewBox="-1 -3 7 6" markerWidth="7" markerHeight="6" color="#9c26b1">
      <g>
        <path d="M 4.8 0 L 0 -1.8 L 0 1.8 Z" fill="currentColor" stroke="currentColor" stroke-width="1"/>
      </g>
    </marker>
  </defs>
  <g id="Functional_Architecture" stroke="none" stroke-opacity="1" fill="none" stroke-dasharray="none" fill-opacity="1">
    <title>Functional Architecture</title>
    <rect fill="white" x="180.1914" y="34.032227" width="1327" height="1190.9678"/>
    <g id="Functional_Architecture_Layer_1">
      <title>Layer 1</title>
      <g id="Graphic_221">
        <title>Text</title>
        <text transform="translate(419.45947 46.032227)" fill="#333">
          <tspan font-family="Helvetica" font-size="24" fill="#333" x="0" y="52" xml:space="preserve">    AFS Freight Billing &amp; Logistics Management System - Functional Architecture</tspan>
          <tspan font-family="Helvetica" font-size="24" fill="#333" x="0" y="81" xml:space="preserve">  </tspan>
        </text>
      </g>
      <g id="Graphic_220">
        <title>Text</title>
        <text transform="translate(680.9414 97.83398)" fill="#666">
          <tspan font-family="Helvetica" font-size="16" fill="#666" x="0" y="34" xml:space="preserve">    Core Business Functions and Relationships</tspan>
          <tspan font-family="Helvetica" font-size="16" fill="#666" x="0" y="53" xml:space="preserve">  </tspan>
        </text>
      </g>
      <g id="Group_231">
        <g id="Graphic_219">
          <path d="M 205.6914 194.98438 L 461.6914 194.98438 C 468.3188 194.98438 473.6914 200.35696 473.6914 206.98438 L 473.6914 362.98438 C 473.6914 369.6118 468.3188 374.98438 461.6914 374.98438 L 205.6914 374.98438 C 199.064 374.98438 193.6914 369.6118 193.6914 362.98438 L 193.6914 206.98438 C 193.6914 200.35696 199.064 194.98438 205.6914 194.98438 Z" fill="url(#Obj_Gradient)"/>
          <path d="M 205.6914 194.98438 L 461.6914 194.98438 C 468.3188 194.98438 473.6914 200.35696 473.6914 206.98438 L 473.6914 362.98438 C 473.6914 369.6118 468.3188 374.98438 461.6914 374.98438 L 205.6914 374.98438 C 199.064 374.98438 193.6914 369.6118 193.6914 362.98438 L 193.6914 206.98438 C 193.6914 200.35696 199.064 194.98438 205.6914 194.98438 Z" stroke="#1976d2" stroke-linecap="butt" stroke-linejoin="round" stroke-width="3"/>
        </g>
        <g id="Graphic_218">
          <title>Text</title>
          <text transform="translate(264.3203 204.66406)" fill="#1976d2">
            <tspan font-family="Helvetica" font-size="16" fill="#1976d2" x="0" y="15" xml:space="preserve">Client Management</tspan>
          </text>
        </g>
        <g id="Graphic_217">
          <path d="M 219.6914 239.98438 L 447.6914 239.98438 C 451.0051 239.98438 453.6914 242.67067 453.6914 245.98438 L 453.6914 263.98438 C 453.6914 267.29808 451.0051 269.98438 447.6914 269.98438 L 219.6914 269.98438 C 216.3777 269.98438 213.6914 267.29808 213.6914 263.98438 L 213.6914 245.98438 C 213.6914 242.67067 216.3777 239.98438 219.6914 239.98438 Z" fill="white"/>
          <path d="M 219.6914 239.98438 L 447.6914 239.98438 C 451.0051 239.98438 453.6914 242.67067 453.6914 245.98438 L 453.6914 263.98438 C 453.6914 267.29808 451.0051 269.98438 447.6914 269.98438 L 219.6914 269.98438 C 216.3777 269.98438 213.6914 267.29808 213.6914 263.98438 L 213.6914 245.98438 C 213.6914 242.67067 216.3777 239.98438 219.6914 239.98438 Z" stroke="#1976d2" stroke-linecap="butt" stroke-linejoin="round" stroke-width="1"/>
        </g>
        <g id="Graphic_216">
          <title>Text</title>
          <text transform="translate(262.32422 244.24414)" fill="#333">
            <tspan font-family="Helvetica" font-size="12" fill="#333" x="0" y="11" xml:space="preserve">Client Master Maintenance</tspan>
          </text>
        </g>
        <g id="Graphic_215">
          <title>Text</title>
          <text transform="translate(274.65747 256.5542)" fill="#666">
            <tspan font-family="Helvetica" font-size="9" fill="#666" x="0" y="9" xml:space="preserve">Core client data management</tspan>
          </text>
        </g>
        <g id="Graphic_214">
          <path d="M 219.6914 279.98438 L 447.6914 279.98438 C 451.0051 279.98438 453.6914 282.67067 453.6914 285.98437 L 453.6914 303.98438 C 453.6914 307.2981 451.0051 309.98438 447.6914 309.98438 L 219.6914 309.98438 C 216.3777 309.98438 213.6914 307.2981 213.6914 303.98438 L 213.6914 285.98437 C 213.6914 282.67067 216.3777 279.98438 219.6914 279.98438 Z" fill="white"/>
          <path d="M 219.6914 279.98438 L 447.6914 279.98438 C 451.0051 279.98438 453.6914 282.67067 453.6914 285.98437 L 453.6914 303.98438 C 453.6914 307.2981 451.0051 309.98438 447.6914 309.98438 L 219.6914 309.98438 C 216.3777 309.98438 213.6914 307.2981 213.6914 303.98438 L 213.6914 285.98437 C 213.6914 282.67067 216.3777 279.98438 219.6914 279.98438 Z" stroke="#1976d2" stroke-linecap="butt" stroke-linejoin="round" stroke-width="1"/>
        </g>
        <g id="Graphic_213">
          <title>Text</title>
          <text transform="translate(267.31934 284.24414)" fill="#333">
            <tspan font-family="Helvetica" font-size="12" fill="#333" x="0" y="11" xml:space="preserve">Client Alias Management</tspan>
          </text>
        </g>
        <g id="Graphic_212">
          <title>Text</title>
          <text transform="translate(285.92065 296.5542)" fill="#666">
            <tspan font-family="Helvetica" font-size="9" fill="#666" x="0" y="9" xml:space="preserve">Multiple client identifiers</tspan>
          </text>
        </g>
        <g id="Graphic_211">
          <path d="M 219.6914 319.98438 L 322.6914 319.98438 C 326.0051 319.98438 328.6914 322.67067 328.6914 325.98438 L 328.6914 343.98438 C 328.6914 347.2981 326.0051 349.98438 322.6914 349.98438 L 219.6914 349.98438 C 216.3777 349.98438 213.6914 347.2981 213.6914 343.98438 L 213.6914 325.98438 C 213.6914 322.67067 216.3777 319.98438 219.6914 319.98438 Z" fill="white"/>
          <path d="M 219.6914 319.98438 L 322.6914 319.98438 C 326.0051 319.98438 328.6914 322.67067 328.6914 325.98438 L 328.6914 343.98438 C 328.6914 347.2981 326.0051 349.98438 322.6914 349.98438 L 219.6914 349.98438 C 216.3777 349.98438 213.6914 347.2981 213.6914 343.98438 L 213.6914 325.98438 C 213.6914 322.67067 216.3777 319.98438 219.6914 319.98438 Z" stroke="#1976d2" stroke-linecap="butt" stroke-linejoin="round" stroke-width="1"/>
        </g>
        <g id="Graphic_210">
          <title>Text</title>
          <text transform="translate(223.91724 325.01416)" fill="#333">
            <tspan font-family="Helvetica" font-size="11" fill="#333" x="0" y="10" xml:space="preserve">Email Maintenance</tspan>
          </text>
        </g>
        <g id="Graphic_209">
          <title>Text</title>
          <text transform="translate(232.44727 337.3242)" fill="#666">
            <tspan font-family="Helvetica" font-size="8" fill="#666" x="0" y="8" xml:space="preserve">Contact management</tspan>
          </text>
        </g>
        <g id="Graphic_208">
          <path d="M 344.6914 319.98438 L 447.6914 319.98438 C 451.0051 319.98438 453.6914 322.67067 453.6914 325.98438 L 453.6914 343.98438 C 453.6914 347.2981 451.0051 349.98438 447.6914 349.98438 L 344.6914 349.98438 C 341.3777 349.98438 338.6914 347.2981 338.6914 343.98438 L 338.6914 325.98438 C 338.6914 322.67067 341.3777 319.98438 344.6914 319.98438 Z" fill="white"/>
          <path d="M 344.6914 319.98438 L 447.6914 319.98438 C 451.0051 319.98438 453.6914 322.67067 453.6914 325.98438 L 453.6914 343.98438 C 453.6914 347.2981 451.0051 349.98438 447.6914 349.98438 L 344.6914 349.98438 C 341.3777 349.98438 338.6914 347.2981 338.6914 343.98438 L 338.6914 325.98438 C 338.6914 322.67067 341.3777 319.98438 344.6914 319.98438 Z" stroke="#1976d2" stroke-linecap="butt" stroke-linejoin="round" stroke-width="1"/>
        </g>
        <g id="Graphic_207">
          <title>Text</title>
          <text transform="translate(356.2488 324.51416)" fill="#333">
            <tspan font-family="Helvetica" font-size="11" fill="#333" x="0" y="10" xml:space="preserve">Region Updates</tspan>
          </text>
        </g>
        <g id="Graphic_206">
          <title>Text</title>
          <text transform="translate(360.11523 336.8242)" fill="#666">
            <tspan font-family="Helvetica" font-size="8" fill="#666" x="0" y="8" xml:space="preserve">Geographic settings</tspan>
          </text>
        </g>
      </g>
      <g id="Group_232">
        <g id="Graphic_204">
          <path d="M 525.6914 194.98438 L 821.6914 194.98438 C 828.3188 194.98438 833.6914 200.35696 833.6914 206.98438 L 833.6914 422.9844 C 833.6914 429.6118 828.3188 434.9844 821.6914 434.9844 L 525.6914 434.9844 C 519.064 434.9844 513.6914 429.6118 513.6914 422.9844 L 513.6914 206.98438 C 513.6914 200.35696 519.064 194.98438 525.6914 194.98438 Z" fill="url(#Obj_Gradient_2)"/>
          <path d="M 525.6914 194.98438 L 821.6914 194.98438 C 828.3188 194.98438 833.6914 200.35696 833.6914 206.98438 L 833.6914 422.9844 C 833.6914 429.6118 828.3188 434.9844 821.6914 434.9844 L 525.6914 434.9844 C 519.064 434.9844 513.6914 429.6118 513.6914 422.9844 L 513.6914 206.98438 C 513.6914 200.35696 519.064 194.98438 525.6914 194.98438 Z" stroke="#388e3c" stroke-linecap="butt" stroke-linejoin="round" stroke-width="3"/>
        </g>
        <g id="Graphic_203">
          <title>Text</title>
          <text transform="translate(607.4375 204.66406)" fill="#388e3c">
            <tspan font-family="Helvetica" font-size="16" fill="#388e3c" x="0" y="15" xml:space="preserve">Freight Operations</tspan>
          </text>
        </g>
        <g id="Graphic_202">
          <path d="M 539.6914 239.98438 L 807.6914 239.98438 C 811.0051 239.98438 813.6914 242.67067 813.6914 245.98438 L 813.6914 263.98438 C 813.6914 267.29808 811.0051 269.98438 807.6914 269.98438 L 539.6914 269.98438 C 536.3777 269.98438 533.6914 267.29808 533.6914 263.98438 L 533.6914 245.98438 C 533.6914 242.67067 536.3777 239.98438 539.6914 239.98438 Z" fill="white"/>
          <path d="M 539.6914 239.98438 L 807.6914 239.98438 C 811.0051 239.98438 813.6914 242.67067 813.6914 245.98438 L 813.6914 263.98438 C 813.6914 267.29808 811.0051 269.98438 807.6914 269.98438 L 539.6914 269.98438 C 536.3777 269.98438 533.6914 267.29808 533.6914 263.98438 L 533.6914 245.98438 C 533.6914 242.67067 536.3777 239.98438 539.6914 239.98438 Z" stroke="#388e3c" stroke-linecap="butt" stroke-linejoin="round" stroke-width="1"/>
        </g>
        <g id="Graphic_201">
          <title>Text</title>
          <text transform="translate(629.6787 244.24414)" fill="#333">
            <tspan font-family="Helvetica" font-size="12" fill="#333" x="0" y="11" xml:space="preserve">Freight Bill Entry</tspan>
          </text>
        </g>
        <g id="Graphic_200">
          <title>Text</title>
          <text transform="translate(610.9177 256.5542)" fill="#666">
            <tspan font-family="Helvetica" font-size="9" fill="#666" x="0" y="9" xml:space="preserve">Primary billing transaction entry</tspan>
          </text>
        </g>
        <g id="Graphic_199">
          <path d="M 539.6914 279.98438 L 657.6914 279.98438 C 661.0051 279.98438 663.6914 282.67067 663.6914 285.98437 L 663.6914 303.98438 C 663.6914 307.2981 661.0051 309.98438 657.6914 309.98438 L 539.6914 309.98438 C 536.3777 309.98438 533.6914 307.2981 533.6914 303.98438 L 533.6914 285.98437 C 533.6914 282.67067 536.3777 279.98438 539.6914 279.98438 Z" fill="white"/>
          <path d="M 539.6914 279.98438 L 657.6914 279.98438 C 661.0051 279.98438 663.6914 282.67067 663.6914 285.98437 L 663.6914 303.98438 C 663.6914 307.2981 661.0051 309.98438 657.6914 309.98438 L 539.6914 309.98438 C 536.3777 309.98438 533.6914 307.2981 533.6914 303.98438 L 533.6914 285.98437 C 533.6914 282.67067 536.3777 279.98438 539.6914 279.98438 Z" stroke="#388e3c" stroke-linecap="butt" stroke-linejoin="round" stroke-width="1"/>
        </g>
        <g id="Graphic_198">
          <title>Text</title>
          <text transform="translate(557.1218 285.01416)" fill="#333">
            <tspan font-family="Helvetica" font-size="11" fill="#333" x="0" y="10" xml:space="preserve">Air Freight Billing</tspan>
          </text>
        </g>
        <g id="Graphic_197">
          <title>Text</title>
          <text transform="translate(564.2305 297.32422)" fill="#666">
            <tspan font-family="Helvetica" font-size="8" fill="#666" x="0" y="8" xml:space="preserve">Airborne shipments</tspan>
          </text>
        </g>
        <g id="Graphic_196">
          <path d="M 689.6914 279.98438 L 807.6914 279.98438 C 811.0051 279.98438 813.6914 282.67067 813.6914 285.98437 L 813.6914 303.98438 C 813.6914 307.2981 811.0051 309.98438 807.6914 309.98438 L 689.6914 309.98438 C 686.3777 309.98438 683.6914 307.2981 683.6914 303.98438 L 683.6914 285.98437 C 683.6914 282.67067 686.3777 279.98438 689.6914 279.98438 Z" fill="white"/>
          <path d="M 689.6914 279.98438 L 807.6914 279.98438 C 811.0051 279.98438 813.6914 282.67067 813.6914 285.98437 L 813.6914 303.98438 C 813.6914 307.2981 811.0051 309.98438 807.6914 309.98438 L 689.6914 309.98438 C 686.3777 309.98438 683.6914 307.2981 683.6914 303.98438 L 683.6914 285.98437 C 683.6914 282.67067 686.3777 279.98438 689.6914 279.98438 Z" stroke="#388e3c" stroke-linecap="butt" stroke-linejoin="round" stroke-width="1"/>
        </g>
        <g id="Graphic_195">
          <title>Text</title>
          <text transform="translate(699.7742 285.01416)" fill="#333">
            <tspan font-family="Helvetica" font-size="11" fill="#333" x="0" y="10" xml:space="preserve">International Freight</tspan>
          </text>
        </g>
        <g id="Graphic_194">
          <title>Text</title>
          <text transform="translate(709.33984 297.32422)" fill="#666">
            <tspan font-family="Helvetica" font-size="8" fill="#666" x="0" y="8" xml:space="preserve">Cross-border shipping</tspan>
          </text>
        </g>
        <g id="Graphic_193">
          <path d="M 539.6914 319.98438 L 657.6914 319.98438 C 661.0051 319.98438 663.6914 322.67067 663.6914 325.98438 L 663.6914 343.98438 C 663.6914 347.2981 661.0051 349.98438 657.6914 349.98438 L 539.6914 349.98438 C 536.3777 349.98438 533.6914 347.2981 533.6914 343.98438 L 533.6914 325.98438 C 533.6914 322.67067 536.3777 319.98438 539.6914 319.98438 Z" fill="white"/>
          <path d="M 539.6914 319.98438 L 657.6914 319.98438 C 661.0051 319.98438 663.6914 322.67067 663.6914 325.98438 L 663.6914 343.98438 C 663.6914 347.2981 661.0051 349.98438 657.6914 349.98438 L 539.6914 349.98438 C 536.3777 349.98438 533.6914 347.2981 533.6914 343.98438 L 533.6914 325.98438 C 533.6914 322.67067 536.3777 319.98438 539.6914 319.98438 Z" stroke="#388e3c" stroke-linecap="butt" stroke-linejoin="round" stroke-width="1"/>
        </g>
        <g id="Graphic_192">
          <title>Text</title>
          <text transform="translate(566.8999 325.01416)" fill="#333">
            <tspan font-family="Helvetica" font-size="11" fill="#333" x="0" y="10" xml:space="preserve">Parcel Billing</tspan>
          </text>
        </g>
        <g id="Graphic_191">
          <title>Text</title>
          <text transform="translate(556.21875 337.3242)" fill="#666">
            <tspan font-family="Helvetica" font-size="8" fill="#666" x="0" y="8" xml:space="preserve">Small package handling</tspan>
          </text>
        </g>
        <g id="Graphic_190">
          <path d="M 689.6914 319.98438 L 807.6914 319.98438 C 811.0051 319.98438 813.6914 322.67067 813.6914 325.98438 L 813.6914 343.98438 C 813.6914 347.2981 811.0051 349.98438 807.6914 349.98438 L 689.6914 349.98438 C 686.3777 349.98438 683.6914 347.2981 683.6914 343.98438 L 683.6914 325.98438 C 683.6914 322.67067 686.3777 319.98438 689.6914 319.98438 Z" fill="white"/>
          <path d="M 689.6914 319.98438 L 807.6914 319.98438 C 811.0051 319.98438 813.6914 322.67067 813.6914 325.98438 L 813.6914 343.98438 C 813.6914 347.2981 811.0051 349.98438 807.6914 349.98438 L 689.6914 349.98438 C 686.3777 349.98438 683.6914 347.2981 683.6914 343.98438 L 683.6914 325.98438 C 683.6914 322.67067 686.3777 319.98438 689.6914 319.98438 Z" stroke="#388e3c" stroke-linecap="butt" stroke-linejoin="round" stroke-width="1"/>
        </g>
        <g id="Graphic_189">
          <title>Text</title>
          <text transform="translate(693.9653 325.01416)" fill="#333">
            <tspan font-family="Helvetica" font-size="11" fill="#333" x="0" y="10" xml:space="preserve">Managed Return Fees</tspan>
          </text>
        </g>
        <g id="Graphic_188">
          <title>Text</title>
          <text transform="translate(708.0039 337.3242)" fill="#666">
            <tspan font-family="Helvetica" font-size="8" fill="#666" x="0" y="8" xml:space="preserve">Return shipment billing</tspan>
          </text>
        </g>
        <g id="Graphic_187">
          <path d="M 539.6914 359.98438 L 807.6914 359.98438 C 811.0051 359.98438 813.6914 362.67067 813.6914 365.98438 L 813.6914 383.98437 C 813.6914 387.2981 811.0051 389.98438 807.6914 389.98438 L 539.6914 389.98438 C 536.3777 389.98438 533.6914 387.2981 533.6914 383.98437 L 533.6914 365.98438 C 533.6914 362.67067 536.3777 359.98438 539.6914 359.98438 Z" fill="white"/>
          <path d="M 539.6914 359.98438 L 807.6914 359.98438 C 811.0051 359.98438 813.6914 362.67067 813.6914 365.98438 L 813.6914 383.98437 C 813.6914 387.2981 811.0051 389.98438 807.6914 389.98438 L 539.6914 389.98438 C 536.3777 389.98438 533.6914 387.2981 533.6914 383.98437 L 533.6914 365.98438 C 533.6914 362.67067 536.3777 359.98438 539.6914 359.98438 Z" stroke="#388e3c" stroke-linecap="butt" stroke-linejoin="round" stroke-width="1"/>
        </g>
        <g id="Graphic_186">
          <title>Text</title>
          <text transform="translate(614.00195 364.24414)" fill="#333">
            <tspan font-family="Helvetica" font-size="12" fill="#333" x="0" y="11" xml:space="preserve">Freight Bill Processing</tspan>
          </text>
        </g>
        <g id="Graphic_185">
          <title>Text</title>
          <text transform="translate(599.9028 376.5542)" fill="#666">
            <tspan font-family="Helvetica" font-size="9" fill="#666" x="0" y="9" xml:space="preserve">End-to-end bill lifecycle management</tspan>
          </text>
        </g>
        <g id="Graphic_184">
          <path d="M 539.6914 399.98438 L 807.6914 399.98438 C 811.0051 399.98438 813.6914 402.67067 813.6914 405.98438 L 813.6914 423.9844 C 813.6914 427.2981 811.0051 429.9844 807.6914 429.9844 L 539.6914 429.9844 C 536.3777 429.9844 533.6914 427.2981 533.6914 423.9844 L 533.6914 405.98438 C 533.6914 402.67067 536.3777 399.98438 539.6914 399.98438 Z" fill="white"/>
          <path d="M 539.6914 399.98438 L 807.6914 399.98438 C 811.0051 399.98438 813.6914 402.67067 813.6914 405.98438 L 813.6914 423.9844 C 813.6914 427.2981 811.0051 429.9844 807.6914 429.9844 L 539.6914 429.9844 C 536.3777 429.9844 533.6914 427.2981 533.6914 423.9844 L 533.6914 405.98438 C 533.6914 402.67067 536.3777 399.98438 539.6914 399.98438 Z" stroke="#388e3c" stroke-linecap="butt" stroke-linejoin="round" stroke-width="1"/>
        </g>
        <g id="Graphic_183">
          <title>Text</title>
          <text transform="translate(614.3301 404.24414)" fill="#333">
            <tspan font-family="Helvetica" font-size="12" fill="#333" x="0" y="11" xml:space="preserve">Freight Bill Verification</tspan>
          </text>
        </g>
        <g id="Graphic_182">
          <title>Text</title>
          <text transform="translate(608.65234 416.5542)" fill="#666">
            <tspan font-family="Helvetica" font-size="9" fill="#666" x="0" y="9" xml:space="preserve">Quality assurance and validation</tspan>
          </text>
        </g>
      </g>
      <g id="Group_233">
        <g id="Graphic_180">
          <path d="M 875.6914 193.48438 L 1171.6914 193.48438 C 1178.3188 193.48438 1183.6914 198.85696 1183.6914 205.48438 L 1183.6914 421.4844 C 1183.6914 428.1118 1178.3188 433.4844 1171.6914 433.4844 L 875.6914 433.4844 C 869.064 433.4844 863.6914 428.1118 863.6914 421.4844 L 863.6914 205.48438 C 863.6914 198.85696 869.064 193.48438 875.6914 193.48438 Z" fill="url(#Obj_Gradient_3)"/>
          <path d="M 875.6914 193.48438 L 1171.6914 193.48438 C 1178.3188 193.48438 1183.6914 198.85696 1183.6914 205.48438 L 1183.6914 421.4844 C 1183.6914 428.1118 1178.3188 433.4844 1171.6914 433.4844 L 875.6914 433.4844 C 869.064 433.4844 863.6914 428.1118 863.6914 421.4844 L 863.6914 205.48438 C 863.6914 198.85696 869.064 193.48438 875.6914 193.48438 Z" stroke="#f57c00" stroke-linecap="butt" stroke-linejoin="round" stroke-width="3"/>
        </g>
        <g id="Graphic_179">
          <title>Text</title>
          <text transform="translate(957.875 204.66406)" fill="#f57c00">
            <tspan font-family="Helvetica" font-size="16" fill="#f57c00" x="0" y="15" xml:space="preserve">Rate Management</tspan>
          </text>
        </g>
        <g id="Graphic_178">
          <path d="M 889.6914 239.98438 L 1157.6914 239.98438 C 1161.0051 239.98438 1163.6914 242.67067 1163.6914 245.98438 L 1163.6914 263.98438 C 1163.6914 267.29808 1161.0051 269.98438 1157.6914 269.98438 L 889.6914 269.98438 C 886.3777 269.98438 883.6914 267.29808 883.6914 263.98438 L 883.6914 245.98438 C 883.6914 242.67067 886.3777 239.98438 889.6914 239.98438 Z" fill="white"/>
          <path d="M 889.6914 239.98438 L 1157.6914 239.98438 C 1161.0051 239.98438 1163.6914 242.67067 1163.6914 245.98438 L 1163.6914 263.98438 C 1163.6914 267.29808 1161.0051 269.98438 1157.6914 269.98438 L 889.6914 269.98438 C 886.3777 269.98438 883.6914 267.29808 883.6914 263.98438 L 883.6914 245.98438 C 883.6914 242.67067 886.3777 239.98438 889.6914 239.98438 Z" stroke="#f57c00" stroke-linecap="butt" stroke-linejoin="round" stroke-width="1"/>
        </g>
        <g id="Graphic_177">
          <title>Text</title>
          <text transform="translate(948.9814 244.24414)" fill="#333">
            <tspan font-family="Helvetica" font-size="12" fill="#333" x="0" y="11" xml:space="preserve">Automated Rate Calculation</tspan>
          </text>
        </g>
        <g id="Graphic_176">
          <title>Text</title>
          <text transform="translate(954.9038 256.5542)" fill="#666">
            <tspan font-family="Helvetica" font-size="9" fill="#666" x="0" y="9" xml:space="preserve">Real-time rate computation engine</tspan>
          </text>
        </g>
        <g id="Graphic_175">
          <path d="M 889.6914 279.98438 L 1007.6914 279.98438 C 1011.0051 279.98438 1013.6914 282.67067 1013.6914 285.98437 L 1013.6914 303.98438 C 1013.6914 307.2981 1011.0051 309.98438 1007.6914 309.98438 L 889.6914 309.98438 C 886.3777 309.98438 883.6914 307.2981 883.6914 303.98438 L 883.6914 285.98437 C 883.6914 282.67067 886.3777 279.98438 889.6914 279.98438 Z" fill="white"/>
          <path d="M 889.6914 279.98438 L 1007.6914 279.98438 C 1011.0051 279.98438 1013.6914 282.67067 1013.6914 285.98437 L 1013.6914 303.98438 C 1013.6914 307.2981 1011.0051 309.98438 1007.6914 309.98438 L 889.6914 309.98438 C 886.3777 309.98438 883.6914 307.2981 883.6914 303.98438 L 883.6914 285.98437 C 883.6914 282.67067 886.3777 279.98438 889.6914 279.98438 Z" stroke="#f57c00" stroke-linecap="butt" stroke-linejoin="round" stroke-width="1"/>
        </g>
        <g id="Graphic_174">
          <title>Text</title>
          <text transform="translate(912.0095 285.01416)" fill="#333">
            <tspan font-family="Helvetica" font-size="11" fill="#333" x="0" y="10" xml:space="preserve">Contract Rates</tspan>
          </text>
        </g>
        <g id="Graphic_173">
          <title>Text</title>
          <text transform="translate(916.4492 297.32422)" fill="#666">
            <tspan font-family="Helvetica" font-size="8" fill="#666" x="0" y="8" xml:space="preserve">Negotiated pricing</tspan>
          </text>
        </g>
        <g id="Graphic_172">
          <path d="M 1039.6914 279.98438 L 1157.6914 279.98438 C 1161.0051 279.98438 1163.6914 282.67067 1163.6914 285.98437 L 1163.6914 303.98438 C 1163.6914 307.2981 1161.0051 309.98438 1157.6914 309.98438 L 1039.6914 309.98438 C 1036.3777 309.98438 1033.6914 307.2981 1033.6914 303.98438 L 1033.6914 285.98437 C 1033.6914 282.67067 1036.3777 279.98438 1039.6914 279.98438 Z" fill="white"/>
          <path d="M 1039.6914 279.98438 L 1157.6914 279.98438 C 1161.0051 279.98438 1163.6914 282.67067 1163.6914 285.98437 L 1163.6914 303.98438 C 1163.6914 307.2981 1161.0051 309.98438 1157.6914 309.98438 L 1039.6914 309.98438 C 1036.3777 309.98438 1033.6914 307.2981 1033.6914 303.98438 L 1033.6914 285.98437 C 1033.6914 282.67067 1036.3777 279.98438 1039.6914 279.98438 Z" stroke="#f57c00" stroke-linecap="butt" stroke-linejoin="round" stroke-width="1"/>
        </g>
        <g id="Graphic_171">
          <title>Text</title>
          <text transform="translate(1054.9788 285.01416)" fill="#333">
            <tspan font-family="Helvetica" font-size="11" fill="#333" x="0" y="10" xml:space="preserve">Benchmark Rates</tspan>
          </text>
        </g>
        <g id="Graphic_170">
          <title>Text</title>
          <text transform="translate(1056.8945 297.32422)" fill="#666">
            <tspan font-family="Helvetica" font-size="8" fill="#666" x="0" y="8" xml:space="preserve">Market standard pricing</tspan>
          </text>
        </g>
        <g id="Graphic_169">
          <path d="M 889.6914 319.98438 L 1007.6914 319.98438 C 1011.0051 319.98438 1013.6914 322.67067 1013.6914 325.98438 L 1013.6914 343.98438 C 1013.6914 347.2981 1011.0051 349.98438 1007.6914 349.98438 L 889.6914 349.98438 C 886.3777 349.98438 883.6914 347.2981 883.6914 343.98438 L 883.6914 325.98438 C 883.6914 322.67067 886.3777 319.98438 889.6914 319.98438 Z" fill="white"/>
          <path d="M 889.6914 319.98438 L 1007.6914 319.98438 C 1011.0051 319.98438 1013.6914 322.67067 1013.6914 325.98438 L 1013.6914 343.98438 C 1013.6914 347.2981 1011.0051 349.98438 1007.6914 349.98438 L 889.6914 349.98438 C 886.3777 349.98438 883.6914 347.2981 883.6914 343.98438 L 883.6914 325.98438 C 883.6914 322.67067 886.3777 319.98438 889.6914 319.98438 Z" stroke="#f57c00" stroke-linecap="butt" stroke-linejoin="round" stroke-width="1"/>
        </g>
        <g id="Graphic_168">
          <title>Text</title>
          <text transform="translate(911.0884 325.01416)" fill="#333">
            <tspan font-family="Helvetica" font-size="11" fill="#333" x="0" y="10" xml:space="preserve">Fuel Surcharge</tspan>
          </text>
        </g>
        <g id="Graphic_167">
          <title>Text</title>
          <text transform="translate(905.1855 337.3242)" fill="#666">
            <tspan font-family="Helvetica" font-size="8" fill="#666" x="0" y="8" xml:space="preserve">Variable cost adjustment</tspan>
          </text>
        </g>
        <g id="Graphic_166">
          <path d="M 1039.6914 319.98438 L 1157.6914 319.98438 C 1161.0051 319.98438 1163.6914 322.67067 1163.6914 325.98438 L 1163.6914 343.98438 C 1163.6914 347.2981 1161.0051 349.98438 1157.6914 349.98438 L 1039.6914 349.98438 C 1036.3777 349.98438 1033.6914 347.2981 1033.6914 343.98438 L 1033.6914 325.98438 C 1033.6914 322.67067 1036.3777 319.98438 1039.6914 319.98438 Z" fill="white"/>
          <path d="M 1039.6914 319.98438 L 1157.6914 319.98438 C 1161.0051 319.98438 1163.6914 322.67067 1163.6914 325.98438 L 1163.6914 343.98438 C 1163.6914 347.2981 1161.0051 349.98438 1157.6914 349.98438 L 1039.6914 349.98438 C 1036.3777 349.98438 1033.6914 347.2981 1033.6914 343.98438 L 1033.6914 325.98438 C 1033.6914 322.67067 1036.3777 319.98438 1039.6914 319.98438 Z" stroke="#f57c00" stroke-linecap="butt" stroke-linejoin="round" stroke-width="1"/>
        </g>
        <g id="Graphic_165">
          <title>Text</title>
          <text transform="translate(1044.481 325.01416)" fill="#333">
            <tspan font-family="Helvetica" font-size="11" fill="#333" x="0" y="10" xml:space="preserve">Transport Mode Rules</tspan>
          </text>
        </g>
        <g id="Graphic_164">
          <title>Text</title>
          <text transform="translate(1064.6777 337.3242)" fill="#666">
            <tspan font-family="Helvetica" font-size="8" fill="#666" x="0" y="8" xml:space="preserve">Mode-specific logic</tspan>
          </text>
        </g>
        <g id="Graphic_163">
          <path d="M 889.6914 359.98438 L 1157.6914 359.98438 C 1161.0051 359.98438 1163.6914 362.67067 1163.6914 365.98438 L 1163.6914 383.98437 C 1163.6914 387.2981 1161.0051 389.98438 1157.6914 389.98438 L 889.6914 389.98438 C 886.3777 389.98438 883.6914 387.2981 883.6914 383.98437 L 883.6914 365.98438 C 883.6914 362.67067 886.3777 359.98438 889.6914 359.98438 Z" fill="white"/>
          <path d="M 889.6914 359.98438 L 1157.6914 359.98438 C 1161.0051 359.98438 1163.6914 362.67067 1163.6914 365.98438 L 1163.6914 383.98437 C 1163.6914 387.2981 1161.0051 389.98438 1157.6914 389.98438 L 889.6914 389.98438 C 886.3777 389.98438 883.6914 387.2981 883.6914 383.98437 L 883.6914 365.98438 C 883.6914 362.67067 886.3777 359.98438 889.6914 359.98438 Z" stroke="#f57c00" stroke-linecap="butt" stroke-linejoin="round" stroke-width="1"/>
        </g>
        <g id="Graphic_162">
          <title>Text</title>
          <text transform="translate(959.6631 364.24414)" fill="#333">
            <tspan font-family="Helvetica" font-size="12" fill="#333" x="0" y="11" xml:space="preserve">Freight Cost Calculation</tspan>
          </text>
        </g>
        <g id="Graphic_161">
          <title>Text</title>
          <text transform="translate(941.9004 376.5542)" fill="#666">
            <tspan font-family="Helvetica" font-size="9" fill="#666" x="0" y="9" xml:space="preserve">Comprehensive cost analysis and pricing</tspan>
          </text>
        </g>
        <g id="Graphic_160">
          <path d="M 889.6914 399.98438 L 1157.6914 399.98438 C 1161.0051 399.98438 1163.6914 402.67067 1163.6914 405.98438 L 1163.6914 423.9844 C 1163.6914 427.2981 1161.0051 429.9844 1157.6914 429.9844 L 889.6914 429.9844 C 886.3777 429.9844 883.6914 427.2981 883.6914 423.9844 L 883.6914 405.98438 C 883.6914 402.67067 886.3777 399.98438 889.6914 399.98438 Z" fill="white"/>
          <path d="M 889.6914 399.98438 L 1157.6914 399.98438 C 1161.0051 399.98438 1163.6914 402.67067 1163.6914 405.98438 L 1163.6914 423.9844 C 1163.6914 427.2981 1161.0051 429.9844 1157.6914 429.9844 L 889.6914 429.9844 C 886.3777 429.9844 883.6914 427.2981 883.6914 423.9844 L 883.6914 405.98438 C 883.6914 402.67067 886.3777 399.98438 889.6914 399.98438 Z" stroke="#f57c00" stroke-linecap="butt" stroke-linejoin="round" stroke-width="1"/>
        </g>
        <g id="Graphic_159">
          <title>Text</title>
          <text transform="translate(944.3262 404.24414)" fill="#333">
            <tspan font-family="Helvetica" font-size="12" fill="#333" x="0" y="11" xml:space="preserve">Lowest Cost Carrier Selection</tspan>
          </text>
        </g>
        <g id="Graphic_158">
          <title>Text</title>
          <text transform="translate(959.4192 416.5542)" fill="#666">
            <tspan font-family="Helvetica" font-size="9" fill="#666" x="0" y="9" xml:space="preserve">Optimal carrier recommendation</tspan>
          </text>
        </g>
      </g>
      <g id="Group_234">
        <g id="Graphic_156">
          <path d="M 1225.6914 194.98438 L 1481.6914 194.98438 C 1488.3188 194.98438 1493.6914 200.35696 1493.6914 206.98438 L 1493.6914 382.98438 C 1493.6914 389.6118 1488.3188 394.98438 1481.6914 394.98438 L 1225.6914 394.98438 C 1219.064 394.98438 1213.6914 389.6118 1213.6914 382.98438 L 1213.6914 206.98438 C 1213.6914 200.35696 1219.064 194.98438 1225.6914 194.98438 Z" fill="url(#Obj_Gradient_4)"/>
          <path d="M 1225.6914 194.98438 L 1481.6914 194.98438 C 1488.3188 194.98438 1493.6914 200.35696 1493.6914 206.98438 L 1493.6914 382.98438 C 1493.6914 389.6118 1488.3188 394.98438 1481.6914 394.98438 L 1225.6914 394.98438 C 1219.064 394.98438 1213.6914 389.6118 1213.6914 382.98438 L 1213.6914 206.98438 C 1213.6914 200.35696 1219.064 194.98438 1225.6914 194.98438 Z" stroke="#c2185b" stroke-linecap="butt" stroke-linejoin="round" stroke-width="3"/>
        </g>
        <g id="Graphic_155">
          <title>Text</title>
          <text transform="translate(1279.8789 204.66406)" fill="#c2185b">
            <tspan font-family="Helvetica" font-size="16" fill="#c2185b" x="0" y="15" xml:space="preserve">Financial Processing</tspan>
          </text>
        </g>
        <g id="Graphic_154">
          <path d="M 1239.6914 239.98438 L 1467.6914 239.98438 C 1471.0051 239.98438 1473.6914 242.67067 1473.6914 245.98438 L 1473.6914 263.98438 C 1473.6914 267.29808 1471.0051 269.98438 1467.6914 269.98438 L 1239.6914 269.98438 C 1236.3777 269.98438 1233.6914 267.29808 1233.6914 263.98438 L 1233.6914 245.98438 C 1233.6914 242.67067 1236.3777 239.98438 1239.6914 239.98438 Z" fill="white"/>
          <path d="M 1239.6914 239.98438 L 1467.6914 239.98438 C 1471.0051 239.98438 1473.6914 242.67067 1473.6914 245.98438 L 1473.6914 263.98438 C 1473.6914 267.29808 1471.0051 269.98438 1467.6914 269.98438 L 1239.6914 269.98438 C 1236.3777 269.98438 1233.6914 267.29808 1233.6914 263.98438 L 1233.6914 245.98438 C 1233.6914 242.67067 1236.3777 239.98438 1239.6914 239.98438 Z" stroke="#c2185b" stroke-linecap="butt" stroke-linejoin="round" stroke-width="1"/>
        </g>
        <g id="Graphic_153">
          <title>Text</title>
          <text transform="translate(1303.333 244.24414)" fill="#333">
            <tspan font-family="Helvetica" font-size="12" fill="#333" x="0" y="11" xml:space="preserve">Invoice Processing</tspan>
          </text>
        </g>
        <g id="Graphic_152">
          <title>Text</title>
          <text transform="translate(1298.1555 256.5542)" fill="#666">
            <tspan font-family="Helvetica" font-size="9" fill="#666" x="0" y="9" xml:space="preserve">Billing document generation</tspan>
          </text>
        </g>
        <g id="Graphic_151">
          <path d="M 1239.6914 279.98438 L 1467.6914 279.98438 C 1471.0051 279.98438 1473.6914 282.67067 1473.6914 285.98437 L 1473.6914 303.98438 C 1473.6914 307.2981 1471.0051 309.98438 1467.6914 309.98438 L 1239.6914 309.98438 C 1236.3777 309.98438 1233.6914 307.2981 1233.6914 303.98438 L 1233.6914 285.98437 C 1233.6914 282.67067 1236.3777 279.98438 1239.6914 279.98438 Z" fill="white"/>
          <path d="M 1239.6914 279.98438 L 1467.6914 279.98438 C 1471.0051 279.98438 1473.6914 282.67067 1473.6914 285.98437 L 1473.6914 303.98438 C 1473.6914 307.2981 1471.0051 309.98438 1467.6914 309.98438 L 1239.6914 309.98438 C 1236.3777 309.98438 1233.6914 307.2981 1233.6914 303.98438 L 1233.6914 285.98437 C 1233.6914 282.67067 1236.3777 279.98438 1239.6914 279.98438 Z" stroke="#c2185b" stroke-linecap="butt" stroke-linejoin="round" stroke-width="1"/>
        </g>
        <g id="Graphic_150">
          <title>Text</title>
          <text transform="translate(1293.331 284.24414)" fill="#333">
            <tspan font-family="Helvetica" font-size="12" fill="#333" x="0" y="11" xml:space="preserve">Freight Cost Reporting</tspan>
          </text>
        </g>
        <g id="Graphic_149">
          <title>Text</title>
          <text transform="translate(1299.1619 296.5542)" fill="#666">
            <tspan font-family="Helvetica" font-size="9" fill="#666" x="0" y="9" xml:space="preserve">Cost analysis and reporting</tspan>
          </text>
        </g>
        <g id="Graphic_148">
          <path d="M 1239.6914 319.98438 L 1342.6914 319.98438 C 1346.0051 319.98438 1348.6914 322.67067 1348.6914 325.98438 L 1348.6914 343.98438 C 1348.6914 347.2981 1346.0051 349.98438 1342.6914 349.98438 L 1239.6914 349.98438 C 1236.3777 349.98438 1233.6914 347.2981 1233.6914 343.98438 L 1233.6914 325.98438 C 1233.6914 322.67067 1236.3777 319.98438 1239.6914 319.98438 Z" fill="white"/>
          <path d="M 1239.6914 319.98438 L 1342.6914 319.98438 C 1346.0051 319.98438 1348.6914 322.67067 1348.6914 325.98438 L 1348.6914 343.98438 C 1348.6914 347.2981 1346.0051 349.98438 1342.6914 349.98438 L 1239.6914 349.98438 C 1236.3777 349.98438 1233.6914 347.2981 1233.6914 343.98438 L 1233.6914 325.98438 C 1233.6914 322.67067 1236.3777 319.98438 1239.6914 319.98438 Z" stroke="#c2185b" stroke-linecap="butt" stroke-linejoin="round" stroke-width="1"/>
        </g>
        <g id="Graphic_147">
          <title>Text</title>
          <text transform="translate(1246.968 325.01416)" fill="#333">
            <tspan font-family="Helvetica" font-size="11" fill="#333" x="0" y="10" xml:space="preserve">Revenue Analysis</tspan>
          </text>
        </g>
        <g id="Graphic_146">
          <title>Text</title>
          <text transform="translate(1256.0117 337.3242)" fill="#666">
            <tspan font-family="Helvetica" font-size="8" fill="#666" x="0" y="8" xml:space="preserve">Profitability tracking</tspan>
          </text>
        </g>
        <g id="Graphic_145">
          <path d="M 1364.6914 319.98438 L 1467.6914 319.98438 C 1471.0051 319.98438 1473.6914 322.67067 1473.6914 325.98438 L 1473.6914 343.98438 C 1473.6914 347.2981 1471.0051 349.98438 1467.6914 349.98438 L 1364.6914 349.98438 C 1361.3777 349.98438 1358.6914 347.2981 1358.6914 343.98438 L 1358.6914 325.98438 C 1358.6914 322.67067 1361.3777 319.98438 1364.6914 319.98438 Z" fill="white"/>
          <path d="M 1364.6914 319.98438 L 1467.6914 319.98438 C 1471.0051 319.98438 1473.6914 322.67067 1473.6914 325.98438 L 1473.6914 343.98438 C 1473.6914 347.2981 1471.0051 349.98438 1467.6914 349.98438 L 1364.6914 349.98438 C 1361.3777 349.98438 1358.6914 347.2981 1358.6914 343.98438 L 1358.6914 325.98438 C 1358.6914 322.67067 1361.3777 319.98438 1364.6914 319.98438 Z" stroke="#c2185b" stroke-linecap="butt" stroke-linejoin="round" stroke-width="1"/>
        </g>
        <g id="Graphic_144">
          <title>Text</title>
          <text transform="translate(1372.9053 325.01416)" fill="#333">
            <tspan font-family="Helvetica" font-size="11" fill="#333" x="0" y="10" xml:space="preserve">Commission Calc</tspan>
          </text>
        </g>
        <g id="Graphic_143">
          <title>Text</title>
          <text transform="translate(1379.67 337.3242)" fill="#666">
            <tspan font-family="Helvetica" font-size="8" fill="#666" x="0" y="8" xml:space="preserve">Sales compensation</tspan>
          </text>
        </g>
        <g id="Graphic_142">
          <path d="M 1239.6914 359.98438 L 1467.6914 359.98438 C 1471.0051 359.98438 1473.6914 362.67067 1473.6914 365.98438 L 1473.6914 383.98437 C 1473.6914 387.2981 1471.0051 389.98438 1467.6914 389.98438 L 1239.6914 389.98438 C 1236.3777 389.98438 1233.6914 387.2981 1233.6914 383.98437 L 1233.6914 365.98438 C 1233.6914 362.67067 1236.3777 359.98438 1239.6914 359.98438 Z" fill="white"/>
          <path d="M 1239.6914 359.98438 L 1467.6914 359.98438 C 1471.0051 359.98438 1473.6914 362.67067 1473.6914 365.98438 L 1473.6914 383.98437 C 1473.6914 387.2981 1471.0051 389.98438 1467.6914 389.98438 L 1239.6914 389.98438 C 1236.3777 389.98438 1233.6914 387.2981 1233.6914 383.98437 L 1233.6914 365.98438 C 1233.6914 362.67067 1236.3777 359.98438 1239.6914 359.98438 Z" stroke="#c2185b" stroke-linecap="butt" stroke-linejoin="round" stroke-width="1"/>
        </g>
        <g id="Graphic_141">
          <title>Text</title>
          <text transform="translate(1276.3184 364.24414)" fill="#333">
            <tspan font-family="Helvetica" font-size="12" fill="#333" x="0" y="11" xml:space="preserve">Payment Frequency Analysis</tspan>
          </text>
        </g>
        <g id="Graphic_140">
          <title>Text</title>
          <text transform="translate(1298.4126 376.5542)" fill="#666">
            <tspan font-family="Helvetica" font-size="9" fill="#666" x="0" y="9" xml:space="preserve">Payment pattern monitoring</tspan>
          </text>
        </g>
      </g>
      <g id="Group_229">
        <g id="Graphic_138">
          <path d="M 495.6914 537.5469 L 811.6914 537.5469 C 818.3188 537.5469 823.6914 542.91946 823.6914 549.5469 L 823.6914 765.5469 C 823.6914 772.1743 818.3188 777.5469 811.6914 777.5469 L 495.6914 777.5469 C 489.064 777.5469 483.6914 772.1743 483.6914 765.5469 L 483.6914 549.5469 C 483.6914 542.91946 489.064 537.5469 495.6914 537.5469 Z" fill="url(#Obj_Gradient_5)"/>
          <path d="M 495.6914 537.5469 L 811.6914 537.5469 C 818.3188 537.5469 823.6914 542.91946 823.6914 549.5469 L 823.6914 765.5469 C 823.6914 772.1743 818.3188 777.5469 811.6914 777.5469 L 495.6914 777.5469 C 489.064 777.5469 483.6914 772.1743 483.6914 765.5469 L 483.6914 549.5469 C 483.6914 542.91946 489.064 537.5469 495.6914 537.5469 Z" stroke="#7b1fa2" stroke-linecap="butt" stroke-linejoin="round" stroke-width="3"/>
        </g>
        <g id="Graphic_137">
          <title>Text</title>
          <text transform="translate(570.52344 547.22656)" fill="#7b1fa2">
            <tspan font-family="Helvetica" font-size="16" fill="#7b1fa2" x="0" y="15" xml:space="preserve">Integration &amp; Exchange</tspan>
          </text>
        </g>
        <g id="Graphic_136">
          <path d="M 509.6914 582.5469 L 797.6914 582.5469 C 801.0051 582.5469 803.6914 585.2332 803.6914 588.5469 L 803.6914 606.5469 C 803.6914 609.8606 801.0051 612.5469 797.6914 612.5469 L 509.6914 612.5469 C 506.3777 612.5469 503.6914 609.8606 503.6914 606.5469 L 503.6914 588.5469 C 503.6914 585.2332 506.3777 582.5469 509.6914 582.5469 Z" fill="white"/>
          <path d="M 509.6914 582.5469 L 797.6914 582.5469 C 801.0051 582.5469 803.6914 585.2332 803.6914 588.5469 L 803.6914 606.5469 C 803.6914 609.8606 801.0051 612.5469 797.6914 612.5469 L 509.6914 612.5469 C 506.3777 612.5469 503.6914 609.8606 503.6914 606.5469 L 503.6914 588.5469 C 503.6914 585.2332 506.3777 582.5469 509.6914 582.5469 Z" stroke="#7b1fa2" stroke-linecap="butt" stroke-linejoin="round" stroke-width="1"/>
        </g>
        <g id="Graphic_135">
          <title>Text</title>
          <text transform="translate(600.9951 586.80664)" fill="#333">
            <tspan font-family="Helvetica" font-size="12" fill="#333" x="0" y="11" xml:space="preserve">EDI Data Exchange</tspan>
          </text>
        </g>
        <g id="Graphic_134">
          <title>Text</title>
          <text transform="translate(561.1426 599.1167)" fill="#666">
            <tspan font-family="Helvetica" font-size="9" fill="#666" x="0" y="9" xml:space="preserve">Electronic document interchange with partners</tspan>
          </text>
        </g>
        <g id="Graphic_133">
          <path d="M 509.6914 622.5469 L 637.6914 622.5469 C 641.0051 622.5469 643.6914 625.2332 643.6914 628.5469 L 643.6914 646.5469 C 643.6914 649.8606 641.0051 652.5469 637.6914 652.5469 L 509.6914 652.5469 C 506.3777 652.5469 503.6914 649.8606 503.6914 646.5469 L 503.6914 628.5469 C 503.6914 625.2332 506.3777 622.5469 509.6914 622.5469 Z" fill="white"/>
          <path d="M 509.6914 622.5469 L 637.6914 622.5469 C 641.0051 622.5469 643.6914 625.2332 643.6914 628.5469 L 643.6914 646.5469 C 643.6914 649.8606 641.0051 652.5469 637.6914 652.5469 L 509.6914 652.5469 C 506.3777 652.5469 503.6914 649.8606 503.6914 646.5469 L 503.6914 628.5469 C 503.6914 625.2332 506.3777 622.5469 509.6914 622.5469 Z" stroke="#7b1fa2" stroke-linecap="butt" stroke-linejoin="round" stroke-width="1"/>
        </g>
        <g id="Graphic_132">
          <title>Text</title>
          <text transform="translate(526.91187 627.57666)" fill="#333">
            <tspan font-family="Helvetica" font-size="11" fill="#333" x="0" y="10" xml:space="preserve">Mileage Integration</tspan>
          </text>
        </g>
        <g id="Graphic_131">
          <title>Text</title>
          <text transform="translate(551.0176 639.8867)" fill="#666">
            <tspan font-family="Helvetica" font-size="8" fill="#666" x="0" y="8" xml:space="preserve">PC Miler API</tspan>
          </text>
        </g>
        <g id="Graphic_130">
          <path d="M 669.6914 622.5469 L 797.6914 622.5469 C 801.0051 622.5469 803.6914 625.2332 803.6914 628.5469 L 803.6914 646.5469 C 803.6914 649.8606 801.0051 652.5469 797.6914 652.5469 L 669.6914 652.5469 C 666.3777 652.5469 663.6914 649.8606 663.6914 646.5469 L 663.6914 628.5469 C 663.6914 625.2332 666.3777 622.5469 669.6914 622.5469 Z" fill="white"/>
          <path d="M 669.6914 622.5469 L 797.6914 622.5469 C 801.0051 622.5469 803.6914 625.2332 803.6914 628.5469 L 803.6914 646.5469 C 803.6914 649.8606 801.0051 652.5469 797.6914 652.5469 L 669.6914 652.5469 C 666.3777 652.5469 663.6914 649.8606 663.6914 646.5469 L 663.6914 628.5469 C 663.6914 625.2332 666.3777 622.5469 669.6914 622.5469 Z" stroke="#7b1fa2" stroke-linecap="butt" stroke-linejoin="round" stroke-width="1"/>
        </g>
        <g id="Graphic_129">
          <title>Text</title>
          <text transform="translate(695.178 627.57666)" fill="#333">
            <tspan font-family="Helvetica" font-size="11" fill="#333" x="0" y="10" xml:space="preserve">Cost Estimation</tspan>
          </text>
        </g>
        <g id="Graphic_128">
          <title>Text</title>
          <text transform="translate(695.7539 639.8867)" fill="#666">
            <tspan font-family="Helvetica" font-size="8" fill="#666" x="0" y="8" xml:space="preserve">TEMPO Web Service</tspan>
          </text>
        </g>
        <g id="Graphic_127">
          <path d="M 509.6914 662.5469 L 637.6914 662.5469 C 641.0051 662.5469 643.6914 665.2332 643.6914 668.5469 L 643.6914 686.5469 C 643.6914 689.8606 641.0051 692.5469 637.6914 692.5469 L 509.6914 692.5469 C 506.3777 692.5469 503.6914 689.8606 503.6914 686.5469 L 503.6914 668.5469 C 503.6914 665.2332 506.3777 662.5469 509.6914 662.5469 Z" fill="white"/>
          <path d="M 509.6914 662.5469 L 637.6914 662.5469 C 641.0051 662.5469 643.6914 665.2332 643.6914 668.5469 L 643.6914 686.5469 C 643.6914 689.8606 641.0051 692.5469 637.6914 692.5469 L 509.6914 692.5469 C 506.3777 692.5469 503.6914 689.8606 503.6914 686.5469 L 503.6914 668.5469 C 503.6914 665.2332 506.3777 662.5469 509.6914 662.5469 Z" stroke="#7b1fa2" stroke-linecap="butt" stroke-linejoin="round" stroke-width="1"/>
        </g>
        <g id="Graphic_126">
          <title>Text</title>
          <text transform="translate(522.2256 667.57666)" fill="#333">
            <tspan font-family="Helvetica" font-size="11" fill="#333" x="0" y="10" xml:space="preserve">SQL Synchronization</tspan>
          </text>
        </g>
        <g id="Graphic_125">
          <title>Text</title>
          <text transform="translate(536.77734 679.8867)" fill="#666">
            <tspan font-family="Helvetica" font-size="8" fill="#666" x="0" y="8" xml:space="preserve">Database integration</tspan>
          </text>
        </g>
        <g id="Graphic_124">
          <path d="M 669.6914 662.5469 L 797.6914 662.5469 C 801.0051 662.5469 803.6914 665.2332 803.6914 668.5469 L 803.6914 686.5469 C 803.6914 689.8606 801.0051 692.5469 797.6914 692.5469 L 669.6914 692.5469 C 666.3777 692.5469 663.6914 689.8606 663.6914 686.5469 L 663.6914 668.5469 C 663.6914 665.2332 666.3777 662.5469 669.6914 662.5469 Z" fill="white"/>
          <path d="M 669.6914 662.5469 L 797.6914 662.5469 C 801.0051 662.5469 803.6914 665.2332 803.6914 668.5469 L 803.6914 686.5469 C 803.6914 689.8606 801.0051 692.5469 797.6914 692.5469 L 669.6914 692.5469 C 666.3777 692.5469 663.6914 689.8606 663.6914 686.5469 L 663.6914 668.5469 C 663.6914 665.2332 666.3777 662.5469 669.6914 662.5469 Z" stroke="#7b1fa2" stroke-linecap="butt" stroke-linejoin="round" stroke-width="1"/>
        </g>
        <g id="Graphic_123">
          <title>Text</title>
          <text transform="translate(690.8892 667.57666)" fill="#333">
            <tspan font-family="Helvetica" font-size="11" fill="#333" x="0" y="10" xml:space="preserve">SAGE Integration</tspan>
          </text>
        </g>
        <g id="Graphic_122">
          <title>Text</title>
          <text transform="translate(702.4219 679.8867)" fill="#666">
            <tspan font-family="Helvetica" font-size="8" fill="#666" x="0" y="8" xml:space="preserve">ERP system sync</tspan>
          </text>
        </g>
        <g id="Graphic_121">
          <path d="M 509.6914 702.5469 L 797.6914 702.5469 C 801.0051 702.5469 803.6914 705.2332 803.6914 708.5469 L 803.6914 726.5469 C 803.6914 729.8606 801.0051 732.5469 797.6914 732.5469 L 509.6914 732.5469 C 506.3777 732.5469 503.6914 729.8606 503.6914 726.5469 L 503.6914 708.5469 C 503.6914 705.2332 506.3777 702.5469 509.6914 702.5469 Z" fill="white"/>
          <path d="M 509.6914 702.5469 L 797.6914 702.5469 C 801.0051 702.5469 803.6914 705.2332 803.6914 708.5469 L 803.6914 726.5469 C 803.6914 729.8606 801.0051 732.5469 797.6914 732.5469 L 509.6914 732.5469 C 506.3777 732.5469 503.6914 729.8606 503.6914 726.5469 L 503.6914 708.5469 C 503.6914 705.2332 506.3777 702.5469 509.6914 702.5469 Z" stroke="#7b1fa2" stroke-linecap="butt" stroke-linejoin="round" stroke-width="1"/>
        </g>
        <g id="Graphic_120">
          <title>Text</title>
          <text transform="translate(591.1162 706.8066)" fill="#333">
            <tspan font-family="Helvetica" font-size="12" fill="#333" x="0" y="11" xml:space="preserve">Carrier Terminal Details</tspan>
          </text>
        </g>
        <g id="Graphic_119">
          <title>Text</title>
          <text transform="translate(565.65576 719.1167)" fill="#666">
            <tspan font-family="Helvetica" font-size="9" fill="#666" x="0" y="9" xml:space="preserve">Carrier connectivity and terminal information</tspan>
          </text>
        </g>
        <g id="Graphic_118">
          <path d="M 509.6914 742.5469 L 797.6914 742.5469 C 801.0051 742.5469 803.6914 745.2332 803.6914 748.5469 L 803.6914 766.5469 C 803.6914 769.8606 801.0051 772.5469 797.6914 772.5469 L 509.6914 772.5469 C 506.3777 772.5469 503.6914 769.8606 503.6914 766.5469 L 503.6914 748.5469 C 503.6914 745.2332 506.3777 742.5469 509.6914 742.5469 Z" fill="white"/>
          <path d="M 509.6914 742.5469 L 797.6914 742.5469 C 801.0051 742.5469 803.6914 745.2332 803.6914 748.5469 L 803.6914 766.5469 C 803.6914 769.8606 801.0051 772.5469 797.6914 772.5469 L 509.6914 772.5469 C 506.3777 772.5469 503.6914 769.8606 503.6914 766.5469 L 503.6914 748.5469 C 503.6914 745.2332 506.3777 742.5469 509.6914 742.5469 Z" stroke="#7b1fa2" stroke-linecap="butt" stroke-linejoin="round" stroke-width="1"/>
        </g>
        <g id="Graphic_117">
          <title>Text</title>
          <text transform="translate(598.0039 746.8066)" fill="#333">
            <tspan font-family="Helvetica" font-size="12" fill="#333" x="0" y="11" xml:space="preserve">Carrier Transit Times</tspan>
          </text>
        </g>
        <g id="Graphic_116">
          <title>Text</title>
          <text transform="translate(587.4219 759.1167)" fill="#666">
            <tspan font-family="Helvetica" font-size="9" fill="#666" x="0" y="9" xml:space="preserve">Real-time delivery time estimates</tspan>
          </text>
        </g>
      </g>
      <g id="Group_230">
        <g id="Graphic_114">
          <path d="M 865.6914 537.5469 L 1201.6914 537.5469 C 1208.3188 537.5469 1213.6914 542.91946 1213.6914 549.5469 L 1213.6914 765.5469 C 1213.6914 772.1743 1208.3188 777.5469 1201.6914 777.5469 L 865.6914 777.5469 C 859.064 777.5469 853.6914 772.1743 853.6914 765.5469 L 853.6914 549.5469 C 853.6914 542.91946 859.064 537.5469 865.6914 537.5469 Z" fill="url(#Obj_Gradient_6)"/>
          <path d="M 865.6914 537.5469 L 1201.6914 537.5469 C 1208.3188 537.5469 1213.6914 542.91946 1213.6914 549.5469 L 1213.6914 765.5469 C 1213.6914 772.1743 1208.3188 777.5469 1201.6914 777.5469 L 865.6914 777.5469 C 859.064 777.5469 853.6914 772.1743 853.6914 765.5469 L 853.6914 549.5469 C 853.6914 542.91946 859.064 537.5469 865.6914 537.5469 Z" stroke="#00695c" stroke-linecap="butt" stroke-linejoin="round" stroke-width="3"/>
        </g>
        <g id="Graphic_113">
          <title>Text</title>
          <text transform="translate(969.2109 547.22656)" fill="#00695c">
            <tspan font-family="Helvetica" font-size="16" fill="#00695c" x="0" y="15" xml:space="preserve">Auditing &amp; Control</tspan>
          </text>
        </g>
        <g id="Graphic_112">
          <path d="M 879.6914 582.5469 L 1187.6914 582.5469 C 1191.0051 582.5469 1193.6914 585.2332 1193.6914 588.5469 L 1193.6914 606.5469 C 1193.6914 609.8606 1191.0051 612.5469 1187.6914 612.5469 L 879.6914 612.5469 C 876.3777 612.5469 873.6914 609.8606 873.6914 606.5469 L 873.6914 588.5469 C 873.6914 585.2332 876.3777 582.5469 879.6914 582.5469 Z" fill="white"/>
          <path d="M 879.6914 582.5469 L 1187.6914 582.5469 C 1191.0051 582.5469 1193.6914 585.2332 1193.6914 588.5469 L 1193.6914 606.5469 C 1193.6914 609.8606 1191.0051 612.5469 1187.6914 612.5469 L 879.6914 612.5469 C 876.3777 612.5469 873.6914 609.8606 873.6914 606.5469 L 873.6914 588.5469 C 873.6914 585.2332 876.3777 582.5469 879.6914 582.5469 Z" stroke="#00695c" stroke-linecap="butt" stroke-linejoin="round" stroke-width="1"/>
        </g>
        <g id="Graphic_111">
          <title>Text</title>
          <text transform="translate(982.3281 586.80664)" fill="#333">
            <tspan font-family="Helvetica" font-size="12" fill="#333" x="0" y="11" xml:space="preserve">Freight Bill Auditing</tspan>
          </text>
        </g>
        <g id="Graphic_110">
          <title>Text</title>
          <text transform="translate(943.6431 599.1167)" fill="#666">
            <tspan font-family="Helvetica" font-size="9" fill="#666" x="0" y="9" xml:space="preserve">Comprehensive bill verification and validation</tspan>
          </text>
        </g>
        <g id="Graphic_109">
          <path d="M 879.6914 622.5469 L 1017.6914 622.5469 C 1021.0051 622.5469 1023.6914 625.2332 1023.6914 628.5469 L 1023.6914 646.5469 C 1023.6914 649.8606 1021.0051 652.5469 1017.6914 652.5469 L 879.6914 652.5469 C 876.3777 652.5469 873.6914 649.8606 873.6914 646.5469 L 873.6914 628.5469 C 873.6914 625.2332 876.3777 622.5469 879.6914 622.5469 Z" fill="white"/>
          <path d="M 879.6914 622.5469 L 1017.6914 622.5469 C 1021.0051 622.5469 1023.6914 625.2332 1023.6914 628.5469 L 1023.6914 646.5469 C 1023.6914 649.8606 1021.0051 652.5469 1017.6914 652.5469 L 879.6914 652.5469 C 876.3777 652.5469 873.6914 649.8606 873.6914 646.5469 L 873.6914 628.5469 C 873.6914 625.2332 876.3777 622.5469 879.6914 622.5469 Z" stroke="#00695c" stroke-linecap="butt" stroke-linejoin="round" stroke-width="1"/>
        </g>
        <g id="Graphic_108">
          <title>Text</title>
          <text transform="translate(892.1338 627.57666)" fill="#333">
            <tspan font-family="Helvetica" font-size="11" fill="#333" x="0" y="10" xml:space="preserve">Imaging Count Reports</tspan>
          </text>
        </g>
        <g id="Graphic_107">
          <title>Text</title>
          <text transform="translate(915.3438 639.8867)" fill="#666">
            <tspan font-family="Helvetica" font-size="8" fill="#666" x="0" y="8" xml:space="preserve">Document tracking</tspan>
          </text>
        </g>
        <g id="Graphic_106">
          <path d="M 1049.6914 622.5469 L 1187.6914 622.5469 C 1191.0051 622.5469 1193.6914 625.2332 1193.6914 628.5469 L 1193.6914 646.5469 C 1193.6914 649.8606 1191.0051 652.5469 1187.6914 652.5469 L 1049.6914 652.5469 C 1046.3777 652.5469 1043.6914 649.8606 1043.6914 646.5469 L 1043.6914 628.5469 C 1043.6914 625.2332 1046.3777 622.5469 1049.6914 622.5469 Z" fill="white"/>
          <path d="M 1049.6914 622.5469 L 1187.6914 622.5469 C 1191.0051 622.5469 1193.6914 625.2332 1193.6914 628.5469 L 1193.6914 646.5469 C 1193.6914 649.8606 1191.0051 652.5469 1187.6914 652.5469 L 1049.6914 652.5469 C 1046.3777 652.5469 1043.6914 649.8606 1043.6914 646.5469 L 1043.6914 628.5469 C 1043.6914 625.2332 1046.3777 622.5469 1049.6914 622.5469 Z" stroke="#00695c" stroke-linecap="butt" stroke-linejoin="round" stroke-width="1"/>
        </g>
        <g id="Graphic_105">
          <title>Text</title>
          <text transform="translate(1065.7942 627.3672)" fill="#333">
            <tspan font-family="Helvetica" font-size="11" fill="#333" x="0" y="10" xml:space="preserve">LTL/LT Audit Program</tspan>
          </text>
        </g>
        <g id="Graphic_104">
          <title>Text</title>
          <text transform="translate(1083.1113 639.8867)" fill="#666">
            <tspan font-family="Helvetica" font-size="8" fill="#666" x="0" y="8" xml:space="preserve">Specialized auditing</tspan>
          </text>
        </g>
        <g id="Graphic_103">
          <path d="M 879.6914 662.5469 L 1017.6914 662.5469 C 1021.0051 662.5469 1023.6914 665.2332 1023.6914 668.5469 L 1023.6914 686.5469 C 1023.6914 689.8606 1021.0051 692.5469 1017.6914 692.5469 L 879.6914 692.5469 C 876.3777 692.5469 873.6914 689.8606 873.6914 686.5469 L 873.6914 668.5469 C 873.6914 665.2332 876.3777 662.5469 879.6914 662.5469 Z" fill="white"/>
          <path d="M 879.6914 662.5469 L 1017.6914 662.5469 C 1021.0051 662.5469 1023.6914 665.2332 1023.6914 668.5469 L 1023.6914 686.5469 C 1023.6914 689.8606 1021.0051 692.5469 1017.6914 692.5469 L 879.6914 692.5469 C 876.3777 692.5469 873.6914 689.8606 873.6914 686.5469 L 873.6914 668.5469 C 873.6914 665.2332 876.3777 662.5469 879.6914 662.5469 Z" stroke="#00695c" stroke-linecap="butt" stroke-linejoin="round" stroke-width="1"/>
        </g>
        <g id="Graphic_102">
          <title>Text</title>
          <text transform="translate(915.3665 667.57666)" fill="#333">
            <tspan font-family="Helvetica" font-size="11" fill="#333" x="0" y="10" xml:space="preserve">Error Logging</tspan>
          </text>
        </g>
        <g id="Graphic_101">
          <title>Text</title>
          <text transform="translate(909.5586 679.8867)" fill="#666">
            <tspan font-family="Helvetica" font-size="8" fill="#666" x="0" y="8" xml:space="preserve">Automated monitoring</tspan>
          </text>
        </g>
        <g id="Graphic_100">
          <path d="M 1049.6914 662.5469 L 1187.6914 662.5469 C 1191.0051 662.5469 1193.6914 665.2332 1193.6914 668.5469 L 1193.6914 686.5469 C 1193.6914 689.8606 1191.0051 692.5469 1187.6914 692.5469 L 1049.6914 692.5469 C 1046.3777 692.5469 1043.6914 689.8606 1043.6914 686.5469 L 1043.6914 668.5469 C 1043.6914 665.2332 1046.3777 662.5469 1049.6914 662.5469 Z" fill="white"/>
          <path d="M 1049.6914 662.5469 L 1187.6914 662.5469 C 1191.0051 662.5469 1193.6914 665.2332 1193.6914 668.5469 L 1193.6914 686.5469 C 1193.6914 689.8606 1191.0051 692.5469 1187.6914 692.5469 L 1049.6914 692.5469 C 1046.3777 692.5469 1043.6914 689.8606 1043.6914 686.5469 L 1043.6914 668.5469 C 1043.6914 665.2332 1046.3777 662.5469 1049.6914 662.5469 Z" stroke="#00695c" stroke-linecap="butt" stroke-linejoin="round" stroke-width="1"/>
        </g>
        <g id="Graphic_99">
          <title>Text</title>
          <text transform="translate(1078.9453 667.57666)" fill="#333">
            <tspan font-family="Helvetica" font-size="11" fill="#333" x="0" y="10" xml:space="preserve">Record Cleanup</tspan>
          </text>
        </g>
        <g id="Graphic_98">
          <title>Text</title>
          <text transform="translate(1086.2266 679.8867)" fill="#666">
            <tspan font-family="Helvetica" font-size="8" fill="#666" x="0" y="8" xml:space="preserve">Data maintenance</tspan>
          </text>
        </g>
        <g id="Graphic_97">
          <path d="M 879.6914 702.5469 L 1187.6914 702.5469 C 1191.0051 702.5469 1193.6914 705.2332 1193.6914 708.5469 L 1193.6914 726.5469 C 1193.6914 729.8606 1191.0051 732.5469 1187.6914 732.5469 L 879.6914 732.5469 C 876.3777 732.5469 873.6914 729.8606 873.6914 726.5469 L 873.6914 708.5469 C 873.6914 705.2332 876.3777 702.5469 879.6914 702.5469 Z" fill="white"/>
          <path d="M 879.6914 702.5469 L 1187.6914 702.5469 C 1191.0051 702.5469 1193.6914 705.2332 1193.6914 708.5469 L 1193.6914 726.5469 C 1193.6914 729.8606 1191.0051 732.5469 1187.6914 732.5469 L 879.6914 732.5469 C 876.3777 732.5469 873.6914 729.8606 873.6914 726.5469 L 873.6914 708.5469 C 873.6914 705.2332 876.3777 702.5469 879.6914 702.5469 Z" stroke="#00695c" stroke-linecap="butt" stroke-linejoin="round" stroke-width="1"/>
        </g>
        <g id="Graphic_96">
          <title>Text</title>
          <text transform="translate(962.3242 706.8066)" fill="#333">
            <tspan font-family="Helvetica" font-size="12" fill="#333" x="0" y="11" xml:space="preserve">Freight Bill Status Tracking</tspan>
          </text>
        </g>
        <g id="Graphic_95">
          <title>Text</title>
          <text transform="translate(936.6514 719.1167)" fill="#666">
            <tspan font-family="Helvetica" font-size="9" fill="#666" x="0" y="9" xml:space="preserve">Real-time status monitoring and workflow control</tspan>
          </text>
        </g>
        <g id="Graphic_94">
          <path d="M 879.6914 742.5469 L 1187.6914 742.5469 C 1191.0051 742.5469 1193.6914 745.2332 1193.6914 748.5469 L 1193.6914 766.5469 C 1193.6914 769.8606 1191.0051 772.5469 1187.6914 772.5469 L 879.6914 772.5469 C 876.3777 772.5469 873.6914 769.8606 873.6914 766.5469 L 873.6914 748.5469 C 873.6914 745.2332 876.3777 742.5469 879.6914 742.5469 Z" fill="white"/>
          <path d="M 879.6914 742.5469 L 1187.6914 742.5469 C 1191.0051 742.5469 1193.6914 745.2332 1193.6914 748.5469 L 1193.6914 766.5469 C 1193.6914 769.8606 1191.0051 772.5469 1187.6914 772.5469 L 879.6914 772.5469 C 876.3777 772.5469 873.6914 769.8606 873.6914 766.5469 L 873.6914 748.5469 C 873.6914 745.2332 876.3777 742.5469 879.6914 742.5469 Z" stroke="#00695c" stroke-linecap="butt" stroke-linejoin="round" stroke-width="1"/>
        </g>
        <g id="Graphic_93">
          <title>Text</title>
          <text transform="translate(971.6582 746.8066)" fill="#333">
            <tspan font-family="Helvetica" font-size="12" fill="#333" x="0" y="11" xml:space="preserve">Historical Data Auditing</tspan>
          </text>
        </g>
        <g id="Graphic_92">
          <title>Text</title>
          <text transform="translate(960.9004 759.1167)" fill="#666">
            <tspan font-family="Helvetica" font-size="9" fill="#666" x="0" y="9" xml:space="preserve">Compliance and regulatory reporting</tspan>
          </text>
        </g>
      </g>
      <g id="Group_56">
        <g id="Graphic_90">
          <path d="M 205.6914 822.5039 L 1481.6914 822.5039 C 1488.3188 822.5039 1493.6914 827.8765 1493.6914 834.5039 L 1493.6914 930.5039 C 1493.6914 937.1313 1488.3188 942.5039 1481.6914 942.5039 L 205.6914 942.5039 C 199.064 942.5039 193.6914 937.1313 193.6914 930.5039 L 193.6914 834.5039 C 193.6914 827.8765 199.064 822.5039 205.6914 822.5039 Z" fill="#f8f9fa"/>
          <path d="M 205.6914 822.5039 L 1481.6914 822.5039 C 1488.3188 822.5039 1493.6914 827.8765 1493.6914 834.5039 L 1493.6914 930.5039 C 1493.6914 937.1313 1488.3188 942.5039 1481.6914 942.5039 L 205.6914 942.5039 C 199.064 942.5039 193.6914 937.1313 193.6914 930.5039 L 193.6914 834.5039 C 193.6914 827.8765 199.064 822.5039 205.6914 822.5039 Z" stroke="#6c757d" stroke-linecap="butt" stroke-linejoin="round" stroke-width="2"/>
        </g>
        <g id="Graphic_89">
          <title>Text</title>
          <text transform="translate(741.4336 832.1836)" fill="#495057">
            <tspan font-family="Helvetica" font-size="16" fill="#495057" x="0" y="15" xml:space="preserve">Core Business Process Flow</tspan>
          </text>
        </g>
        <g id="Graphic_88">
          <path d="M 231.6914 872.5039 L 335.6914 872.5039 C 340.1097 872.5039 343.6914 876.0856 343.6914 880.5039 L 343.6914 914.5039 C 343.6914 918.9222 340.1097 922.5039 335.6914 922.5039 L 231.6914 922.5039 C 227.27313 922.5039 223.6914 918.9222 223.6914 914.5039 L 223.6914 880.5039 C 223.6914 876.0856 227.27313 872.5039 231.6914 872.5039 Z" fill="#e3f2fd"/>
          <path d="M 231.6914 872.5039 L 335.6914 872.5039 C 340.1097 872.5039 343.6914 876.0856 343.6914 880.5039 L 343.6914 914.5039 C 343.6914 918.9222 340.1097 922.5039 335.6914 922.5039 L 231.6914 922.5039 C 227.27313 922.5039 223.6914 918.9222 223.6914 914.5039 L 223.6914 880.5039 C 223.6914 876.0856 227.27313 872.5039 231.6914 872.5039 Z" stroke="#1976d2" stroke-linecap="butt" stroke-linejoin="round" stroke-width="2"/>
        </g>
        <g id="Graphic_87">
          <title>Text</title>
          <text transform="translate(269.62988 882.0337)" fill="#1976d2">
            <tspan font-family="Helvetica" font-size="11" fill="#1976d2" x="0" y="10" xml:space="preserve">Client</tspan>
          </text>
        </g>
        <g id="Graphic_86">
          <title>Text</title>
          <text transform="translate(269.31836 894.0337)" fill="#1976d2">
            <tspan font-family="Helvetica" font-size="11" fill="#1976d2" x="0" y="10" xml:space="preserve">Setup</tspan>
          </text>
        </g>
        <g id="Graphic_85">
          <title>Text</title>
          <text transform="translate(259.93018 907.5737)" fill="#666">
            <tspan font-family="Helvetica" font-size="9" fill="#666" x="0" y="9" xml:space="preserve">Master data</tspan>
          </text>
        </g>
        <g id="Graphic_84">
          <path d="M 391.6914 872.5039 L 495.6914 872.5039 C 500.1097 872.5039 503.6914 876.0856 503.6914 880.5039 L 503.6914 914.5039 C 503.6914 918.9222 500.1097 922.5039 495.6914 922.5039 L 391.6914 922.5039 C 387.27313 922.5039 383.6914 918.9222 383.6914 914.5039 L 383.6914 880.5039 C 383.6914 876.0856 387.27313 872.5039 391.6914 872.5039 Z" fill="#e8f5e8"/>
          <path d="M 391.6914 872.5039 L 495.6914 872.5039 C 500.1097 872.5039 503.6914 876.0856 503.6914 880.5039 L 503.6914 914.5039 C 503.6914 918.9222 500.1097 922.5039 495.6914 922.5039 L 391.6914 922.5039 C 387.27313 922.5039 383.6914 918.9222 383.6914 914.5039 L 383.6914 880.5039 C 383.6914 876.0856 387.27313 872.5039 391.6914 872.5039 Z" stroke="#388e3c" stroke-linecap="butt" stroke-linejoin="round" stroke-width="2"/>
        </g>
        <g id="Graphic_83">
          <title>Text</title>
          <text transform="translate(417.71143 882.0337)" fill="#388e3c">
            <tspan font-family="Helvetica" font-size="11" fill="#388e3c" x="0" y="10" xml:space="preserve">Freight Bill</tspan>
          </text>
        </g>
        <g id="Graphic_82">
          <title>Text</title>
          <text transform="translate(430.8545 894.0337)" fill="#388e3c">
            <tspan font-family="Helvetica" font-size="11" fill="#388e3c" x="0" y="10" xml:space="preserve">Entry</tspan>
          </text>
        </g>
        <g id="Graphic_81">
          <title>Text</title>
          <text transform="translate(409.33716 907.5737)" fill="#666">
            <tspan font-family="Helvetica" font-size="9" fill="#666" x="0" y="9" xml:space="preserve">Transaction input</tspan>
          </text>
        </g>
        <g id="Graphic_80">
          <path d="M 551.6914 872.5039 L 655.6914 872.5039 C 660.1097 872.5039 663.6914 876.0856 663.6914 880.5039 L 663.6914 914.5039 C 663.6914 918.9222 660.1097 922.5039 655.6914 922.5039 L 551.6914 922.5039 C 547.2731 922.5039 543.6914 918.9222 543.6914 914.5039 L 543.6914 880.5039 C 543.6914 876.0856 547.2731 872.5039 551.6914 872.5039 Z" fill="#fff3e0"/>
          <path d="M 551.6914 872.5039 L 655.6914 872.5039 C 660.1097 872.5039 663.6914 876.0856 663.6914 880.5039 L 663.6914 914.5039 C 663.6914 918.9222 660.1097 922.5039 655.6914 922.5039 L 551.6914 922.5039 C 547.2731 922.5039 543.6914 918.9222 543.6914 914.5039 L 543.6914 880.5039 C 543.6914 876.0856 547.2731 872.5039 551.6914 872.5039 Z" stroke="#f57c00" stroke-linecap="butt" stroke-linejoin="round" stroke-width="2"/>
        </g>
        <g id="Graphic_79">
          <title>Text</title>
          <text transform="translate(592.0737 882.0337)" fill="#f57c00">
            <tspan font-family="Helvetica" font-size="11" fill="#f57c00" x="0" y="10" xml:space="preserve">Rate</tspan>
          </text>
        </g>
        <g id="Graphic_78">
          <title>Text</title>
          <text transform="translate(576.48145 894.0337)" fill="#f57c00">
            <tspan font-family="Helvetica" font-size="11" fill="#f57c00" x="0" y="10" xml:space="preserve">Calculation</tspan>
          </text>
        </g>
        <g id="Graphic_77">
          <title>Text</title>
          <text transform="translate(575.1731 907.5737)" fill="#666">
            <tspan font-family="Helvetica" font-size="9" fill="#666" x="0" y="9" xml:space="preserve">Pricing engine</tspan>
          </text>
        </g>
        <g id="Graphic_76">
          <path d="M 711.6914 872.5039 L 815.6914 872.5039 C 820.1097 872.5039 823.6914 876.0856 823.6914 880.5039 L 823.6914 914.5039 C 823.6914 918.9222 820.1097 922.5039 815.6914 922.5039 L 711.6914 922.5039 C 707.2731 922.5039 703.6914 918.9222 703.6914 914.5039 L 703.6914 880.5039 C 703.6914 876.0856 707.2731 872.5039 711.6914 872.5039 Z" fill="#e0f2f1"/>
          <path d="M 711.6914 872.5039 L 815.6914 872.5039 C 820.1097 872.5039 823.6914 876.0856 823.6914 880.5039 L 823.6914 914.5039 C 823.6914 918.9222 820.1097 922.5039 815.6914 922.5039 L 711.6914 922.5039 C 707.2731 922.5039 703.6914 918.9222 703.6914 914.5039 L 703.6914 880.5039 C 703.6914 876.0856 707.2731 872.5039 711.6914 872.5039 Z" stroke="#00695c" stroke-linecap="butt" stroke-linejoin="round" stroke-width="2"/>
        </g>
        <g id="Graphic_75">
          <title>Text</title>
          <text transform="translate(745.9587 882.0337)" fill="#00695c">
            <tspan font-family="Helvetica" font-size="11" fill="#00695c" x="0" y="10" xml:space="preserve">Audit &amp;</tspan>
          </text>
        </g>
        <g id="Graphic_74">
          <title>Text</title>
          <text transform="translate(739.9404 894.0337)" fill="#00695c">
            <tspan font-family="Helvetica" font-size="11" fill="#00695c" x="0" y="10" xml:space="preserve">Validation</tspan>
          </text>
        </g>
        <g id="Graphic_73">
          <title>Text</title>
          <text transform="translate(734.9292 907.5737)" fill="#666">
            <tspan font-family="Helvetica" font-size="9" fill="#666" x="0" y="9" xml:space="preserve">Quality control</tspan>
          </text>
        </g>
        <g id="Graphic_72">
          <path d="M 871.6914 872.5039 L 975.6914 872.5039 C 980.1097 872.5039 983.6914 876.0856 983.6914 880.5039 L 983.6914 914.5039 C 983.6914 918.9222 980.1097 922.5039 975.6914 922.5039 L 871.6914 922.5039 C 867.2731 922.5039 863.6914 918.9222 863.6914 914.5039 L 863.6914 880.5039 C 863.6914 876.0856 867.2731 872.5039 871.6914 872.5039 Z" fill="#fce4ec"/>
          <path d="M 871.6914 872.5039 L 975.6914 872.5039 C 980.1097 872.5039 983.6914 876.0856 983.6914 880.5039 L 983.6914 914.5039 C 983.6914 918.9222 980.1097 922.5039 975.6914 922.5039 L 871.6914 922.5039 C 867.2731 922.5039 863.6914 918.9222 863.6914 914.5039 L 863.6914 880.5039 C 863.6914 876.0856 867.2731 872.5039 871.6914 872.5039 Z" stroke="#c2185b" stroke-linecap="butt" stroke-linejoin="round" stroke-width="2"/>
        </g>
        <g id="Graphic_71">
          <title>Text</title>
          <text transform="translate(906.2649 882.0337)" fill="#c2185b">
            <tspan font-family="Helvetica" font-size="11" fill="#c2185b" x="0" y="10" xml:space="preserve">Invoice</tspan>
          </text>
        </g>
        <g id="Graphic_70">
          <title>Text</title>
          <text transform="translate(896.4788 894.0337)" fill="#c2185b">
            <tspan font-family="Helvetica" font-size="11" fill="#c2185b" x="0" y="10" xml:space="preserve">Generation</tspan>
          </text>
        </g>
        <g id="Graphic_69">
          <title>Text</title>
          <text transform="translate(897.9241 907.5737)" fill="#666">
            <tspan font-family="Helvetica" font-size="9" fill="#666" x="0" y="9" xml:space="preserve">Billing output</tspan>
          </text>
        </g>
        <g id="Graphic_68">
          <path d="M 1031.6914 872.5039 L 1135.6914 872.5039 C 1140.1097 872.5039 1143.6914 876.0856 1143.6914 880.5039 L 1143.6914 914.5039 C 1143.6914 918.9222 1140.1097 922.5039 1135.6914 922.5039 L 1031.6914 922.5039 C 1027.2731 922.5039 1023.6914 918.9222 1023.6914 914.5039 L 1023.6914 880.5039 C 1023.6914 876.0856 1027.2731 872.5039 1031.6914 872.5039 Z" fill="#fce4ec"/>
          <path d="M 1031.6914 872.5039 L 1135.6914 872.5039 C 1140.1097 872.5039 1143.6914 876.0856 1143.6914 880.5039 L 1143.6914 914.5039 C 1143.6914 918.9222 1140.1097 922.5039 1135.6914 922.5039 L 1031.6914 922.5039 C 1027.2731 922.5039 1023.6914 918.9222 1023.6914 914.5039 L 1023.6914 880.5039 C 1023.6914 876.0856 1027.2731 872.5039 1031.6914 872.5039 Z" stroke="#c2185b" stroke-linecap="butt" stroke-linejoin="round" stroke-width="2"/>
        </g>
        <g id="Graphic_67">
          <title>Text</title>
          <text transform="translate(1061.9868 882.0337)" fill="#c2185b">
            <tspan font-family="Helvetica" font-size="11" fill="#c2185b" x="0" y="10" xml:space="preserve">Payment</tspan>
          </text>
        </g>
        <g id="Graphic_66">
          <title>Text</title>
          <text transform="translate(1056.4841 894.0337)" fill="#c2185b">
            <tspan font-family="Helvetica" font-size="11" fill="#c2185b" x="0" y="10" xml:space="preserve">Processing</tspan>
          </text>
        </g>
        <g id="Graphic_65">
          <title>Text</title>
          <text transform="translate(1043.6726 907.5737)" fill="#666">
            <tspan font-family="Helvetica" font-size="9" fill="#666" x="0" y="9" xml:space="preserve">Financial settlement</tspan>
          </text>
        </g>
        <g id="Graphic_64">
          <path d="M 1191.6914 872.5039 L 1295.6914 872.5039 C 1300.1097 872.5039 1303.6914 876.0856 1303.6914 880.5039 L 1303.6914 914.5039 C 1303.6914 918.9222 1300.1097 922.5039 1295.6914 922.5039 L 1191.6914 922.5039 C 1187.2731 922.5039 1183.6914 918.9222 1183.6914 914.5039 L 1183.6914 880.5039 C 1183.6914 876.0856 1187.2731 872.5039 1191.6914 872.5039 Z" fill="#f3e5f5"/>
          <path d="M 1191.6914 872.5039 L 1295.6914 872.5039 C 1300.1097 872.5039 1303.6914 876.0856 1303.6914 880.5039 L 1303.6914 914.5039 C 1303.6914 918.9222 1300.1097 922.5039 1295.6914 922.5039 L 1191.6914 922.5039 C 1187.2731 922.5039 1183.6914 918.9222 1183.6914 914.5039 L 1183.6914 880.5039 C 1183.6914 876.0856 1187.2731 872.5039 1191.6914 872.5039 Z" stroke="#7b1fa2" stroke-linecap="butt" stroke-linejoin="round" stroke-width="2"/>
        </g>
        <g id="Graphic_63">
          <title>Text</title>
          <text transform="translate(1223.5149 882.0337)" fill="#7b1fa2">
            <tspan font-family="Helvetica" font-size="11" fill="#7b1fa2" x="0" y="10" xml:space="preserve">External</tspan>
          </text>
        </g>
        <g id="Graphic_62">
          <title>Text</title>
          <text transform="translate(1217.7007 894.0337)" fill="#7b1fa2">
            <tspan font-family="Helvetica" font-size="11" fill="#7b1fa2" x="0" y="10" xml:space="preserve">Integration</tspan>
          </text>
        </g>
        <g id="Graphic_61">
          <title>Text</title>
          <text transform="translate(1221.4309 907.5737)" fill="#666">
            <tspan font-family="Helvetica" font-size="9" fill="#666" x="0" y="9" xml:space="preserve">EDI &amp; APIs</tspan>
          </text>
        </g>
        <g id="Graphic_60">
          <path d="M 1351.6914 872.5039 L 1455.6914 872.5039 C 1460.1097 872.5039 1463.6914 876.0856 1463.6914 880.5039 L 1463.6914 914.5039 C 1463.6914 918.9222 1460.1097 922.5039 1455.6914 922.5039 L 1351.6914 922.5039 C 1347.2731 922.5039 1343.6914 918.9222 1343.6914 914.5039 L 1343.6914 880.5039 C 1343.6914 876.0856 1347.2731 872.5039 1351.6914 872.5039 Z" fill="#e0f2f1"/>
          <path d="M 1351.6914 872.5039 L 1455.6914 872.5039 C 1460.1097 872.5039 1463.6914 876.0856 1463.6914 880.5039 L 1463.6914 914.5039 C 1463.6914 918.9222 1460.1097 922.5039 1455.6914 922.5039 L 1351.6914 922.5039 C 1347.2731 922.5039 1343.6914 918.9222 1343.6914 914.5039 L 1343.6914 880.5039 C 1343.6914 876.0856 1347.2731 872.5039 1351.6914 872.5039 Z" stroke="#00695c" stroke-linecap="butt" stroke-linejoin="round" stroke-width="2"/>
        </g>
        <g id="Graphic_59">
          <title>Text</title>
          <text transform="translate(1374.6472 882.0337)" fill="#00695c">
            <tspan font-family="Helvetica" font-size="11" fill="#00695c" x="0" y="10" xml:space="preserve">Reporting &amp;</tspan>
          </text>
        </g>
        <g id="Graphic_58">
          <title>Text</title>
          <text transform="translate(1381.6833 894.0337)" fill="#00695c">
            <tspan font-family="Helvetica" font-size="11" fill="#00695c" x="0" y="10" xml:space="preserve">Analytics</tspan>
          </text>
        </g>
        <g id="Graphic_57">
          <title>Text</title>
          <text transform="translate(1361.6665 907.5737)" fill="#666">
            <tspan font-family="Helvetica" font-size="9" fill="#666" x="0" y="9" xml:space="preserve">Business intelligence</tspan>
          </text>
        </g>
      </g>
      <g id="Line_49">
        <line x1="343.6914" y1="898.0469" x2="367.7914" y2="898.0469" marker-end="url(#FilledArrow_Marker)" stroke="#4caf50" stroke-linecap="butt" stroke-linejoin="round" stroke-width="3"/>
      </g>
      <g id="Line_48">
        <line x1="473.6914" y1="284.98438" x2="497.7914" y2="284.98438" marker-end="url(#FilledArrow_Marker_2)" stroke="#2196f3" stroke-linecap="butt" stroke-linejoin="round" stroke-width="3"/>
      </g>
      <g id="Line_47">
        <line x1="833.6914" y1="314.98438" x2="847.7914" y2="314.98438" marker-end="url(#FilledArrow_Marker_2)" stroke="#2196f3" stroke-linecap="butt" stroke-linejoin="round" stroke-width="3"/>
      </g>
      <g id="Line_46">
        <line x1="1183.6914" y1="314.98438" x2="1197.7914" y2="314.98438" marker-end="url(#FilledArrow_Marker_2)" stroke="#2196f3" stroke-linecap="butt" stroke-linejoin="round" stroke-width="3"/>
      </g>
      <g id="Graphic_40">
        <path d="M 802.2247 966.7617 L 1105.1581 966.7617 C 1109.8709 966.7617 1113.6914 970.7625 1113.6914 975.6977 L 1113.6914 1203.564 C 1113.6914 1208.4992 1109.8709 1212.5 1105.1581 1212.5 L 802.2247 1212.5 C 797.5119 1212.5 793.6914 1208.4992 793.6914 1203.564 L 793.6914 975.6977 C 793.6914 970.7625 797.5119 966.7617 802.2247 966.7617 Z" fill="#f8f9fa"/>
        <path d="M 802.2247 966.7617 L 1105.1581 966.7617 C 1109.8709 966.7617 1113.6914 970.7625 1113.6914 975.6977 L 1113.6914 1203.564 C 1113.6914 1208.4992 1109.8709 1212.5 1105.1581 1212.5 L 802.2247 1212.5 C 797.5119 1212.5 793.6914 1208.4992 793.6914 1203.564 L 793.6914 975.6977 C 793.6914 970.7625 797.5119 966.7617 802.2247 966.7617 Z" stroke="#6c757d" stroke-linecap="butt" stroke-linejoin="round" stroke-width="1"/>
      </g>
      <g id="Graphic_39">
        <title>Text</title>
        <text transform="translate(920.333 972.9814)" fill="#495057">
          <tspan font-family="Helvetica" font-size="14" fill="#495057" x="0" y="14" xml:space="preserve">Legend</tspan>
        </text>
      </g>
      <g id="Graphic_38">
        <rect x="813.6914" y="1001.7617" width="15" height="12" fill="url(#Obj_Gradient_7)"/>
        <rect x="813.6914" y="1001.7617" width="15" height="12" stroke="#1976d2" stroke-linecap="butt" stroke-linejoin="round" stroke-width="1"/>
      </g>
      <g id="Graphic_37">
        <title>Text</title>
        <text transform="translate(838.6914 1000.2915)" fill="#333">
          <tspan font-family="Helvetica" font-size="11" fill="#333" x="0" y="10" xml:space="preserve">Client Management</tspan>
        </text>
      </g>
      <g id="Graphic_36">
        <rect x="813.6914" y="1021.7617" width="15" height="12" fill="url(#Obj_Gradient_8)"/>
        <rect x="813.6914" y="1021.7617" width="15" height="12" stroke="#388e3c" stroke-linecap="butt" stroke-linejoin="round" stroke-width="1"/>
      </g>
      <g id="Graphic_35">
        <title>Text</title>
        <text transform="translate(838.6914 1020.2915)" fill="#333">
          <tspan font-family="Helvetica" font-size="11" fill="#333" x="0" y="10" xml:space="preserve">Freight Operations</tspan>
        </text>
      </g>
      <g id="Graphic_34">
        <rect x="813.6914" y="1041.7617" width="15" height="12" fill="url(#Obj_Gradient_9)"/>
        <rect x="813.6914" y="1041.7617" width="15" height="12" stroke="#f57c00" stroke-linecap="butt" stroke-linejoin="round" stroke-width="1"/>
      </g>
      <g id="Graphic_33">
        <title>Text</title>
        <text transform="translate(838.6914 1040.2915)" fill="#333">
          <tspan font-family="Helvetica" font-size="11" fill="#333" x="0" y="10" xml:space="preserve">Rate Management</tspan>
        </text>
      </g>
      <g id="Graphic_32">
        <rect x="963.6914" y="1001.7617" width="15" height="12" fill="url(#Obj_Gradient_10)"/>
        <rect x="963.6914" y="1001.7617" width="15" height="12" stroke="#c2185b" stroke-linecap="butt" stroke-linejoin="round" stroke-width="1"/>
      </g>
      <g id="Graphic_31">
        <title>Text</title>
        <text transform="translate(988.6914 1000.2915)" fill="#333">
          <tspan font-family="Helvetica" font-size="11" fill="#333" x="0" y="10" xml:space="preserve">Financial Processing</tspan>
        </text>
      </g>
      <g id="Graphic_30">
        <rect x="963.6914" y="1021.7617" width="15" height="12" fill="url(#Obj_Gradient_11)"/>
        <rect x="963.6914" y="1021.7617" width="15" height="12" stroke="#7b1fa2" stroke-linecap="butt" stroke-linejoin="round" stroke-width="1"/>
      </g>
      <g id="Graphic_29">
        <title>Text</title>
        <text transform="translate(988.6914 1020.2915)" fill="#333">
          <tspan font-family="Helvetica" font-size="11" fill="#333" x="0" y="10" xml:space="preserve">Integration &amp; Exchange</tspan>
        </text>
      </g>
      <g id="Graphic_28">
        <rect x="963.6914" y="1041.7617" width="15" height="12" fill="url(#Obj_Gradient_12)"/>
        <rect x="963.6914" y="1041.7617" width="15" height="12" stroke="#00695c" stroke-linecap="butt" stroke-linejoin="round" stroke-width="1"/>
      </g>
      <g id="Graphic_27">
        <title>Text</title>
        <text transform="translate(988.6914 1040.2915)" fill="#333">
          <tspan font-family="Helvetica" font-size="11" fill="#333" x="0" y="10" xml:space="preserve">Auditing &amp; Control</tspan>
        </text>
      </g>
      <g id="Line_26">
        <line x1="813.6914" y1="1084.4897" x2="843.6914" y2="1084.4897" stroke="#4caf50" stroke-linecap="butt" stroke-linejoin="round" stroke-width="3"/>
      </g>
      <g id="Graphic_25">
        <title>Text</title>
        <text transform="translate(853.6914 1078.0195)" fill="#333">
          <tspan font-family="Helvetica" font-size="11" fill="#333" x="0" y="10" xml:space="preserve">Process Flow</tspan>
        </text>
      </g>
      <g id="Line_24">
        <line x1="813.6914" y1="1104.4897" x2="843.6914" y2="1104.4897" stroke="#2196f3" stroke-linecap="butt" stroke-linejoin="round" stroke-width="3"/>
      </g>
      <g id="Graphic_23">
        <title>Text</title>
        <text transform="translate(853.6914 1098.0195)" fill="#333">
          <tspan font-family="Helvetica" font-size="11" fill="#333" x="0" y="10" xml:space="preserve">Function Dependencies</tspan>
        </text>
      </g>
      <g id="Line_22">
        <line x1="813.6914" y1="1124.4897" x2="843.6914" y2="1124.4897" stroke="#9c27b0" stroke-linecap="butt" stroke-linejoin="round" stroke-dasharray="8.0,8.0" stroke-width="2"/>
      </g>
      <g id="Graphic_21">
        <title>Text</title>
        <text transform="translate(853.6914 1118.0195)" fill="#333">
          <tspan font-family="Helvetica" font-size="11" fill="#333" x="0" y="10" xml:space="preserve">Integration Feedback</tspan>
        </text>
      </g>
      <g id="Graphic_20">
        <title>Text</title>
        <text transform="translate(813.6914 1144.4897)" fill="#495057">
          <tspan font-family="Helvetica" font-size="12" fill="#495057" x="0" y="11" xml:space="preserve">Business Functions:</tspan>
        </text>
      </g>
      <g id="Graphic_19">
        <title>Text</title>
        <text transform="translate(813.6914 1160.2598)" fill="#333">
          <tspan font-family="Helvetica" font-size="11" fill="#333" x="0" y="10" xml:space="preserve"> 50+ documented subjects</tspan>
        </text>
      </g>
      <g id="Graphic_18">
        <title>Text</title>
        <text transform="translate(813.6914 1175.2598)" fill="#333">
          <tspan font-family="Helvetica" font-size="11" fill="#333" x="0" y="10" xml:space="preserve"> End-to-end logistics coverage</tspan>
        </text>
      </g>
      <g id="Graphic_16">
        <path d="M 1151.6914 966.7617 L 1485.6914 966.7617 C 1490.1097 966.7617 1493.6914 970.7625 1493.6914 975.6977 L 1493.6914 1203.564 C 1493.6914 1208.4992 1490.1097 1212.5 1485.6914 1212.5 L 1151.6914 1212.5 C 1147.2731 1212.5 1143.6914 1208.4992 1143.6914 1203.564 L 1143.6914 975.6977 C 1143.6914 970.7625 1147.2731 966.7617 1151.6914 966.7617 Z" fill="#e8f4fd"/>
        <path d="M 1151.6914 966.7617 L 1485.6914 966.7617 C 1490.1097 966.7617 1493.6914 970.7625 1493.6914 975.6977 L 1493.6914 1203.564 C 1493.6914 1208.4992 1490.1097 1212.5 1485.6914 1212.5 L 1151.6914 1212.5 C 1147.2731 1212.5 1143.6914 1208.4992 1143.6914 1203.564 L 1143.6914 975.6977 C 1143.6914 970.7625 1147.2731 966.7617 1151.6914 966.7617 Z" stroke="#1976d2" stroke-linecap="butt" stroke-linejoin="round" stroke-width="1"/>
      </g>
      <g id="Graphic_15">
        <title>Text</title>
        <text transform="translate(1238.1504 972.9814)" fill="#1976d2">
          <tspan font-family="Helvetica" font-size="14" fill="#1976d2" x="0" y="14" xml:space="preserve">Key Business Capabilities</tspan>
        </text>
      </g>
      <g id="Graphic_14">
        <title>Text</title>
        <text transform="translate(1163.6914 1001.2915)" fill="#333">
          <tspan font-family="Helvetica" font-size="11" fill="#333" x="0" y="10" xml:space="preserve">Multi-Modal Support:</tspan>
        </text>
      </g>
      <g id="Graphic_13">
        <title>Text</title>
        <text transform="translate(1163.6914 1017.0615)" fill="#666">
          <tspan font-family="Helvetica" font-size="10" fill="#666" x="0" y="10" xml:space="preserve"> LTL, Truckload, Air Freight, International</tspan>
        </text>
      </g>
      <g id="Graphic_12">
        <title>Text</title>
        <text transform="translate(1163.6914 1032.0615)" fill="#666">
          <tspan font-family="Helvetica" font-size="10" fill="#666" x="0" y="10" xml:space="preserve"> Parcel and managed returns</tspan>
        </text>
      </g>
      <g id="Graphic_11">
        <title>Text</title>
        <text transform="translate(1163.6914 1051.2915)" fill="#333">
          <tspan font-family="Helvetica" font-size="11" fill="#333" x="0" y="10" xml:space="preserve">Rate Calculation:</tspan>
        </text>
      </g>
      <g id="Graphic_10">
        <title>Text</title>
        <text transform="translate(1163.6914 1067.0615)" fill="#666">
          <tspan font-family="Helvetica" font-size="10" fill="#666" x="0" y="10" xml:space="preserve"> Contract, benchmark, and spot rates</tspan>
        </text>
      </g>
      <g id="Graphic_9">
        <title>Text</title>
        <text transform="translate(1163.6914 1082.0615)" fill="#666">
          <tspan font-family="Helvetica" font-size="10" fill="#666" x="0" y="10" xml:space="preserve"> Fuel surcharge automation</tspan>
        </text>
      </g>
      <g id="Graphic_8">
        <title>Text</title>
        <text transform="translate(1163.6914 1101.2915)" fill="#333">
          <tspan font-family="Helvetica" font-size="11" fill="#333" x="0" y="10" xml:space="preserve">External Integrations:</tspan>
        </text>
      </g>
      <g id="Graphic_7">
        <title>Text</title>
        <text transform="translate(1163.6914 1117.0615)" fill="#666">
          <tspan font-family="Helvetica" font-size="10" fill="#666" x="0" y="10" xml:space="preserve"> PC Miler, RateWareXL, TEMPO</tspan>
        </text>
      </g>
      <g id="Graphic_6">
        <title>Text</title>
        <text transform="translate(1163.6914 1132.0615)" fill="#666">
          <tspan font-family="Helvetica" font-size="10" fill="#666" x="0" y="10" xml:space="preserve"> EDI with carriers and customers</tspan>
        </text>
      </g>
      <g id="Graphic_5">
        <title>Text</title>
        <text transform="translate(1163.6914 1151.2915)" fill="#333">
          <tspan font-family="Helvetica" font-size="11" fill="#333" x="0" y="10" xml:space="preserve">Audit &amp; Compliance:</tspan>
        </text>
      </g>
      <g id="Graphic_4">
        <title>Text</title>
        <text transform="translate(1163.6914 1167.0615)" fill="#666">
          <tspan font-family="Helvetica" font-size="10" fill="#666" x="0" y="10" xml:space="preserve"> Comprehensive bill validation</tspan>
        </text>
      </g>
      <g id="Graphic_3">
        <title>Text</title>
        <text transform="translate(1163.6914 1182.0615)" fill="#666">
          <tspan font-family="Helvetica" font-size="10" fill="#666" x="0" y="10" xml:space="preserve"> Historical data auditing</tspan>
        </text>
      </g>
      <g id="Line_222">
        <line x1="503.4258" y1="898.0469" x2="527.5258" y2="898.0469" marker-end="url(#FilledArrow_Marker)" stroke="#4caf50" stroke-linecap="butt" stroke-linejoin="round" stroke-width="3"/>
      </g>
      <g id="Line_223">
        <line x1="664.1406" y1="898.0469" x2="688.2406" y2="898.0469" marker-end="url(#FilledArrow_Marker)" stroke="#4caf50" stroke-linecap="butt" stroke-linejoin="round" stroke-width="3"/>
      </g>
      <g id="Line_224">
        <line x1="824.1406" y1="898.0469" x2="848.2406" y2="898.0469" marker-end="url(#FilledArrow_Marker)" stroke="#4caf50" stroke-linecap="butt" stroke-linejoin="round" stroke-width="3"/>
      </g>
      <g id="Line_225">
        <line x1="984.1406" y1="898.0469" x2="1008.2406" y2="898.0469" marker-end="url(#FilledArrow_Marker)" stroke="#4caf50" stroke-linecap="butt" stroke-linejoin="round" stroke-width="3"/>
      </g>
      <g id="Line_226">
        <line x1="1144.1406" y1="898.0469" x2="1168.2406" y2="898.0469" marker-end="url(#FilledArrow_Marker)" stroke="#4caf50" stroke-linecap="butt" stroke-linejoin="round" stroke-width="3"/>
      </g>
      <g id="Line_227">
        <line x1="1304.1406" y1="898.0469" x2="1328.2406" y2="898.0469" marker-end="url(#FilledArrow_Marker)" stroke="#4caf50" stroke-linecap="butt" stroke-linejoin="round" stroke-width="3"/>
      </g>
      <g id="Line_236">
        <path d="M 760 533.5 L 760 495.5 L 1040 495.5 L 1040 449.3844" marker-end="url(#FilledArrow_Marker_3)" stroke="#2196f3" stroke-linecap="round" stroke-linejoin="round" stroke-width="3"/>
      </g>
      <g id="Line_238">
        <line x1="653.1914" y1="532.5" x2="653.1914" y2="454.9" marker-end="url(#FilledArrow_Marker_3)" stroke="#2196f3" stroke-linecap="round" stroke-linejoin="round" stroke-width="3"/>
      </g>
      <g id="Line_239">
        <path d="M 1070.25 537.5469 L 1070.25 496.5 L 1354.5898 496.5 L 1354.5898 415.41562" marker-end="url(#FilledArrow_Marker_4)" stroke="#2196f3" stroke-linecap="round" stroke-linejoin="round" stroke-width="3"/>
      </g>
      <g id="Line_240">
        <path d="M 708.6914 535.52344 L 708.6914 476.5 L 988.6914 476.5 L 988.6914 448.4078" marker-end="url(#FilledArrow_Marker_5)" stroke="#9c26b1" stroke-linecap="round" stroke-linejoin="round" stroke-dasharray="16.0,10.0" stroke-width="2"/>
      </g>
      <g id="Line_247">
        <line x1="680.9414" y1="532.2656" x2="680.9414" y2="451.6656" marker-end="url(#FilledArrow_Marker_5)" stroke="#9c26b1" stroke-linecap="round" stroke-linejoin="round" stroke-dasharray="16.0,10.0" stroke-width="2"/>
      </g>
    </g>
  </g>
</svg>
