<?xml version="1.0" encoding="UTF-8" standalone="no"?>
<!DOCTYPE svg PUBLIC "-//W3C//DTD SVG 1.1//EN" "http://www.w3.org/Graphics/SVG/1.1/DTD/svg11.dtd">
<svg xmlns:dc="http://purl.org/dc/elements/1.1/" version="1.1" xmlns:xl="http://www.w3.org/1999/xlink" xmlns="http://www.w3.org/2000/svg" viewBox="62.4375 114.51172 1379.2969 859.9307" width="1379.2969" height="859.9307">
  <defs>
    <linearGradient x1="0" x2="1" id="Gradient" gradientUnits="userSpaceOnUse">
      <stop offset="0" stop-color="#e3f2fd"/>
      <stop offset="0" stop-color="#d0e8fc"/>
      <stop offset="1" stop-color="#bbdefb"/>
    </linearGradient>
    <linearGradient id="Obj_Gradient" xl:href="#Gradient" gradientTransform="translate(50.4375 453.31553) rotate(45) scale(353.5534)"/>
    <linearGradient x1="0" x2="1" id="Gradient_2" gradientUnits="userSpaceOnUse">
      <stop offset="0" stop-color="#f3e5f5"/>
      <stop offset="0" stop-color="#ead2ee"/>
      <stop offset="1" stop-color="#e1bee7"/>
    </linearGradient>
    <linearGradient id="Obj_Gradient_2" xl:href="#Gradient_2" gradientTransform="translate(550.68164 98.7207) rotate(45) scale(612.2053)"/>
    <linearGradient x1="0" x2="1" id="Gradient_3" gradientUnits="userSpaceOnUse">
      <stop offset="0" stop-color="#e8f5e8"/>
      <stop offset="0" stop-color="#d9eed9"/>
      <stop offset="1" stop-color="#c8e6c9"/>
    </linearGradient>
    <linearGradient id="Obj_Gradient_3" xl:href="#Gradient_3" gradientTransform="translate(550.68164 211.83496) rotate(45) scale(612.2053)"/>
    <linearGradient x1="0" x2="1" id="Gradient_4" gradientUnits="userSpaceOnUse">
      <stop offset="0" stop-color="#fff3e0"/>
      <stop offset="0" stop-color="#ffe084"/>
      <stop offset="1" stop-color="#ffcc02"/>
    </linearGradient>
    <linearGradient id="Obj_Gradient_4" xl:href="#Gradient_4" gradientTransform="translate(434.61534 452.32363) rotate(45) scale(356.3589)"/>
    <linearGradient x1="0" x2="1" id="Gradient_5" gradientUnits="userSpaceOnUse">
      <stop offset="0" stop-color="#fce4ec"/>
      <stop offset="0" stop-color="#fbd0e3"/>
      <stop offset="1" stop-color="#f8bbd9"/>
    </linearGradient>
    <linearGradient id="Obj_Gradient_5" xl:href="#Gradient_5" gradientTransform="translate(545.8086 511.07227) rotate(45) scale(620.0332)"/>
    <linearGradient x1="0" x2="1" id="Gradient_6" gradientUnits="userSpaceOnUse">
      <stop offset="0" stop-color="#f1f8e9"/>
      <stop offset="0" stop-color="#e7f3d9"/>
      <stop offset="1" stop-color="#dcedc8"/>
    </linearGradient>
    <linearGradient id="Obj_Gradient_6" xl:href="#Gradient_6" gradientTransform="translate(841.5794 451.70086) rotate(45) scale(358.12038)"/>
    <linearGradient x1="0" x2="1" id="Gradient_7" gradientUnits="userSpaceOnUse">
      <stop offset="0" stop-color="#e0f2f1"/>
      <stop offset="0" stop-color="#cae9e6"/>
      <stop offset="1" stop-color="#b2dfdb"/>
    </linearGradient>
    <linearGradient id="Obj_Gradient_7" xl:href="#Gradient_7" gradientTransform="translate(540.02344 650.7168) rotate(45) scale(636.3961)"/>
    <linearGradient id="Obj_Gradient_8" xl:href="#Gradient_3" gradientTransform="translate(1230.4844 308.91797) rotate(45) scale(17.67767)"/>
    <linearGradient id="Obj_Gradient_9" xl:href="#Gradient_4" gradientTransform="translate(1230.4844 328.91797) rotate(45) scale(17.67767)"/>
    <linearGradient id="Obj_Gradient_10" xl:href="#Gradient_5" gradientTransform="translate(1230.4844 348.91797) rotate(45) scale(17.67767)"/>
    <linearGradient id="Obj_Gradient_11" xl:href="#Gradient" gradientTransform="translate(1230.4844 368.91797) rotate(45) scale(17.67767)"/>
    <marker orient="auto" overflow="visible" markerUnits="strokeWidth" id="FilledArrow_Marker" stroke-linejoin="miter" stroke-miterlimit="10" viewBox="-1 -3 6 6" markerWidth="6" markerHeight="6" color="#666">
      <g>
        <path d="M 3.7333333 0 L 0 -1.4 L 0 1.4 Z" fill="currentColor" stroke="currentColor" stroke-width="1"/>
      </g>
    </marker>
    <marker orient="auto" overflow="visible" markerUnits="strokeWidth" id="FilledArrow_Marker_2" stroke-linejoin="miter" stroke-miterlimit="10" viewBox="-1 -3 7 6" markerWidth="7" markerHeight="6" color="#67a038">
      <g>
        <path d="M 4.8 0 L 0 -1.8 L 0 1.8 Z" fill="currentColor" stroke="currentColor" stroke-width="1"/>
      </g>
    </marker>
  </defs>
  <g id="High_Level_Architecture_1" stroke="none" stroke-opacity="1" fill="none" stroke-dasharray="none" fill-opacity="1">
    <title>High Level Architecture 1</title>
    <rect fill="white" x="62.4375" y="114.51172" width="1379.2969" height="859.9307"/>
    <g id="High_Level_Architecture_1_Layer_1">
      <title>Layer 1</title>
      <g id="Graphic_147">
        <title>Text</title>
        <text transform="translate(334.97657 126.51172)" fill="#333">
          <tspan font-family="Helvetica" font-size="24" fill="#333" x="0" y="52" xml:space="preserve">    AFS Freight Billing &amp; Logistics Management System - High-Level Architecture</tspan>
          <tspan font-family="Helvetica" font-size="24" fill="#333" x="0" y="81" xml:space="preserve">  </tspan>
        </text>
      </g>
      <g id="Group_128">
        <g id="Graphic_146">
          <path d="M 85.4375 428.31553 L 265.4375 428.31553 C 270.96035 428.31553 275.4375 432.7927 275.4375 438.31553 L 275.4375 718.3155 C 275.4375 723.8384 270.96035 728.3155 265.4375 728.3155 L 85.4375 728.3155 C 79.91465 728.3155 75.4375 723.8384 75.4375 718.3155 L 75.4375 438.31553 C 75.4375 432.7927 79.91465 428.31553 85.4375 428.31553 Z" fill="url(#Obj_Gradient)"/>
          <path d="M 85.4375 428.31553 L 265.4375 428.31553 C 270.96035 428.31553 275.4375 432.7927 275.4375 438.31553 L 275.4375 718.3155 C 275.4375 723.8384 270.96035 728.3155 265.4375 728.3155 L 85.4375 728.3155 C 79.91465 728.3155 75.4375 723.8384 75.4375 718.3155 L 75.4375 438.31553 C 75.4375 432.7927 79.91465 428.31553 85.4375 428.31553 Z" stroke="#1976d2" stroke-linecap="butt" stroke-linejoin="round" stroke-width="2"/>
        </g>
        <g id="Graphic_145">
          <title>Text</title>
          <text transform="translate(113.19531 432.9952)" fill="#1976d2">
            <tspan font-family="Helvetica" font-size="16" fill="#1976d2" x="0" y="15" xml:space="preserve">External Systems</tspan>
          </text>
        </g>
        <g id="Graphic_144">
          <path d="M 98.4375 468.31553 L 252.4375 468.31553 C 254.09435 468.31553 255.4375 469.6587 255.4375 471.31553 L 255.4375 490.3155 C 255.4375 491.9724 254.09435 493.3155 252.4375 493.3155 L 98.4375 493.3155 C 96.78065 493.3155 95.4375 491.9724 95.4375 490.3155 L 95.4375 471.31553 C 95.4375 469.6587 96.78065 468.31553 98.4375 468.31553 Z" fill="white"/>
          <path d="M 98.4375 468.31553 L 252.4375 468.31553 C 254.09435 468.31553 255.4375 469.6587 255.4375 471.31553 L 255.4375 490.3155 C 255.4375 491.9724 254.09435 493.3155 252.4375 493.3155 L 98.4375 493.3155 C 96.78065 493.3155 95.4375 491.9724 95.4375 490.3155 L 95.4375 471.31553 C 95.4375 469.6587 96.78065 468.31553 98.4375 468.31553 Z" stroke="#1976d2" stroke-linecap="butt" stroke-linejoin="round" stroke-width="1"/>
        </g>
        <g id="Graphic_143">
          <title>Text</title>
          <text transform="translate(143.95483 473.8453)" fill="#333">
            <tspan font-family="Helvetica" font-size="11" fill="#333" x="0" y="10" xml:space="preserve">EDI Partners</tspan>
          </text>
        </g>
        <g id="Graphic_142">
          <path d="M 98.4375 503.3155 L 252.4375 503.3155 C 254.09435 503.3155 255.4375 504.6587 255.4375 506.3155 L 255.4375 525.3155 C 255.4375 526.9724 254.09435 528.3155 252.4375 528.3155 L 98.4375 528.3155 C 96.78065 528.3155 95.4375 526.9724 95.4375 525.3155 L 95.4375 506.3155 C 95.4375 504.6587 96.78065 503.3155 98.4375 503.3155 Z" fill="white"/>
          <path d="M 98.4375 503.3155 L 252.4375 503.3155 C 254.09435 503.3155 255.4375 504.6587 255.4375 506.3155 L 255.4375 525.3155 C 255.4375 526.9724 254.09435 528.3155 252.4375 528.3155 L 98.4375 528.3155 C 96.78065 528.3155 95.4375 526.9724 95.4375 525.3155 L 95.4375 506.3155 C 95.4375 504.6587 96.78065 503.3155 98.4375 503.3155 Z" stroke="#1976d2" stroke-linecap="butt" stroke-linejoin="round" stroke-width="1"/>
        </g>
        <g id="Graphic_141">
          <title>Text</title>
          <text transform="translate(154.35327 508.8453)" fill="#333">
            <tspan font-family="Helvetica" font-size="11" fill="#333" x="0" y="10" xml:space="preserve">PC Miler</tspan>
          </text>
        </g>
        <g id="Graphic_140">
          <path d="M 98.4375 538.3155 L 252.4375 538.3155 C 254.09435 538.3155 255.4375 539.6587 255.4375 541.3155 L 255.4375 560.3155 C 255.4375 561.9724 254.09435 563.3155 252.4375 563.3155 L 98.4375 563.3155 C 96.78065 563.3155 95.4375 561.9724 95.4375 560.3155 L 95.4375 541.3155 C 95.4375 539.6587 96.78065 538.3155 98.4375 538.3155 Z" fill="white"/>
          <path d="M 98.4375 538.3155 L 252.4375 538.3155 C 254.09435 538.3155 255.4375 539.6587 255.4375 541.3155 L 255.4375 560.3155 C 255.4375 561.9724 254.09435 563.3155 252.4375 563.3155 L 98.4375 563.3155 C 96.78065 563.3155 95.4375 561.9724 95.4375 560.3155 L 95.4375 541.3155 C 95.4375 539.6587 96.78065 538.3155 98.4375 538.3155 Z" stroke="#1976d2" stroke-linecap="butt" stroke-linejoin="round" stroke-width="1"/>
        </g>
        <g id="Graphic_139">
          <title>Text</title>
          <text transform="translate(144.15356 543.8453)" fill="#333">
            <tspan font-family="Helvetica" font-size="11" fill="#333" x="0" y="10" xml:space="preserve">RateWareXL</tspan>
          </text>
        </g>
        <g id="Graphic_138">
          <path d="M 98.4375 573.3155 L 252.4375 573.3155 C 254.09435 573.3155 255.4375 574.6587 255.4375 576.3155 L 255.4375 595.3155 C 255.4375 596.9724 254.09435 598.3155 252.4375 598.3155 L 98.4375 598.3155 C 96.78065 598.3155 95.4375 596.9724 95.4375 595.3155 L 95.4375 576.3155 C 95.4375 574.6587 96.78065 573.3155 98.4375 573.3155 Z" fill="white"/>
          <path d="M 98.4375 573.3155 L 252.4375 573.3155 C 254.09435 573.3155 255.4375 574.6587 255.4375 576.3155 L 255.4375 595.3155 C 255.4375 596.9724 254.09435 598.3155 252.4375 598.3155 L 98.4375 598.3155 C 96.78065 598.3155 95.4375 596.9724 95.4375 595.3155 L 95.4375 576.3155 C 95.4375 574.6587 96.78065 573.3155 98.4375 573.3155 Z" stroke="#1976d2" stroke-linecap="butt" stroke-linejoin="round" stroke-width="1"/>
        </g>
        <g id="Graphic_137">
          <title>Text</title>
          <text transform="translate(136.61792 578.8453)" fill="#333">
            <tspan font-family="Helvetica" font-size="11" fill="#333" x="0" y="10" xml:space="preserve">Carrier Connect</tspan>
          </text>
        </g>
        <g id="Graphic_136">
          <path d="M 98.4375 608.3155 L 252.4375 608.3155 C 254.09435 608.3155 255.4375 609.6587 255.4375 611.3155 L 255.4375 630.3155 C 255.4375 631.9724 254.09435 633.3155 252.4375 633.3155 L 98.4375 633.3155 C 96.78065 633.3155 95.4375 631.9724 95.4375 630.3155 L 95.4375 611.3155 C 95.4375 609.6587 96.78065 608.3155 98.4375 608.3155 Z" fill="white"/>
          <path d="M 98.4375 608.3155 L 252.4375 608.3155 C 254.09435 608.3155 255.4375 609.6587 255.4375 611.3155 L 255.4375 630.3155 C 255.4375 631.9724 254.09435 633.3155 252.4375 633.3155 L 98.4375 633.3155 C 96.78065 633.3155 95.4375 631.9724 95.4375 630.3155 L 95.4375 611.3155 C 95.4375 609.6587 96.78065 608.3155 98.4375 608.3155 Z" stroke="#1976d2" stroke-linecap="butt" stroke-linejoin="round" stroke-width="1"/>
        </g>
        <g id="Graphic_135">
          <title>Text</title>
          <text transform="translate(147.31714 613.8453)" fill="#333">
            <tspan font-family="Helvetica" font-size="11" fill="#333" x="0" y="10" xml:space="preserve">SAGE ERP</tspan>
          </text>
        </g>
        <g id="Graphic_134">
          <path d="M 98.4375 643.3155 L 252.4375 643.3155 C 254.09435 643.3155 255.4375 644.6587 255.4375 646.3155 L 255.4375 665.3155 C 255.4375 666.9724 254.09435 668.3155 252.4375 668.3155 L 98.4375 668.3155 C 96.78065 668.3155 95.4375 666.9724 95.4375 665.3155 L 95.4375 646.3155 C 95.4375 644.6587 96.78065 643.3155 98.4375 643.3155 Z" fill="white"/>
          <path d="M 98.4375 643.3155 L 252.4375 643.3155 C 254.09435 643.3155 255.4375 644.6587 255.4375 646.3155 L 255.4375 665.3155 C 255.4375 666.9724 254.09435 668.3155 252.4375 668.3155 L 98.4375 668.3155 C 96.78065 668.3155 95.4375 666.9724 95.4375 665.3155 L 95.4375 646.3155 C 95.4375 644.6587 96.78065 643.3155 98.4375 643.3155 Z" stroke="#1976d2" stroke-linecap="butt" stroke-linejoin="round" stroke-width="1"/>
        </g>
        <g id="Graphic_133">
          <title>Text</title>
          <text transform="translate(123.27344 648.8453)" fill="#333">
            <tspan font-family="Helvetica" font-size="11" fill="#333" x="0" y="10" xml:space="preserve">TEMPO Web Service</tspan>
          </text>
        </g>
        <g id="Graphic_132">
          <path d="M 98.4375 678.3155 L 167.4375 678.3155 C 169.09435 678.3155 170.4375 679.6587 170.4375 681.3155 L 170.4375 700.3155 C 170.4375 701.9724 169.09435 703.3155 167.4375 703.3155 L 98.4375 703.3155 C 96.78065 703.3155 95.4375 701.9724 95.4375 700.3155 L 95.4375 681.3155 C 95.4375 679.6587 96.78065 678.3155 98.4375 678.3155 Z" fill="white"/>
          <path d="M 98.4375 678.3155 L 167.4375 678.3155 C 169.09435 678.3155 170.4375 679.6587 170.4375 681.3155 L 170.4375 700.3155 C 170.4375 701.9724 169.09435 703.3155 167.4375 703.3155 L 98.4375 703.3155 C 96.78065 703.3155 95.4375 701.9724 95.4375 700.3155 L 95.4375 681.3155 C 95.4375 679.6587 96.78065 678.3155 98.4375 678.3155 Z" stroke="#1976d2" stroke-linecap="butt" stroke-linejoin="round" stroke-width="1"/>
        </g>
        <g id="Graphic_131">
          <title>Text</title>
          <text transform="translate(121.12866 683.8453)" fill="#333">
            <tspan font-family="Helvetica" font-size="11" fill="#333" x="0" y="10" xml:space="preserve">UPS</tspan>
          </text>
        </g>
        <g id="Graphic_130">
          <path d="M 183.4375 678.3155 L 252.4375 678.3155 C 254.09435 678.3155 255.4375 679.6587 255.4375 681.3155 L 255.4375 700.3155 C 255.4375 701.9724 254.09435 703.3155 252.4375 703.3155 L 183.4375 703.3155 C 181.78065 703.3155 180.4375 701.9724 180.4375 700.3155 L 180.4375 681.3155 C 180.4375 679.6587 181.78065 678.3155 183.4375 678.3155 Z" fill="white"/>
          <path d="M 183.4375 678.3155 L 252.4375 678.3155 C 254.09435 678.3155 255.4375 679.6587 255.4375 681.3155 L 255.4375 700.3155 C 255.4375 701.9724 254.09435 703.3155 252.4375 703.3155 L 183.4375 703.3155 C 181.78065 703.3155 180.4375 701.9724 180.4375 700.3155 L 180.4375 681.3155 C 180.4375 679.6587 181.78065 678.3155 183.4375 678.3155 Z" stroke="#1976d2" stroke-linecap="butt" stroke-linejoin="round" stroke-width="1"/>
        </g>
        <g id="Graphic_129">
          <title>Text</title>
          <text transform="translate(201.54175 683.8453)" fill="#333">
            <tspan font-family="Helvetica" font-size="11" fill="#333" x="0" y="10" xml:space="preserve">FedEx</tspan>
          </text>
        </g>
      </g>
      <g id="Graphic_127">
        <path d="M 363.28516 209.18457 L 1165.7617 209.18457 C 1171.2846 209.18457 1175.7617 213.66172 1175.7617 219.18457 L 1175.7617 950.9424 C 1175.7617 956.4652 1171.2846 960.9424 1165.7617 960.9424 L 363.28516 960.9424 C 357.7623 960.9424 353.28516 956.4652 353.28516 950.9424 L 353.28516 219.18457 C 353.28516 213.66172 357.7623 209.18457 363.28516 209.18457 Z" fill="#f5f5f5"/>
        <path d="M 363.28516 209.18457 L 1165.7617 209.18457 C 1171.2846 209.18457 1175.7617 213.66172 1175.7617 219.18457 L 1175.7617 950.9424 C 1175.7617 956.4652 1171.2846 960.9424 1165.7617 960.9424 L 363.28516 960.9424 C 357.7623 960.9424 353.28516 956.4652 353.28516 950.9424 L 353.28516 219.18457 C 353.28516 213.66172 357.7623 209.18457 363.28516 209.18457 Z" stroke="#333" stroke-linecap="butt" stroke-linejoin="round" stroke-width="3"/>
      </g>
      <g id="Graphic_126">
        <title>Text</title>
        <text transform="translate(678.7134 218.4795)" fill="#333">
          <tspan font-family="Helvetica" font-size="18" fill="#333" x="0" y="18" xml:space="preserve">AFS Freight System</tspan>
        </text>
      </g>
      <g id="Group_170">
        <g id="Graphic_125">
          <path d="M 387.40058 270.16797 L 1146.8572 270.16797 C 1151.3673 270.16797 1155.0234 273.7497 1155.0234 278.16797 L 1155.0234 352.16797 C 1155.0234 356.58625 1151.3673 360.16797 1146.8572 360.16797 L 387.40058 360.16797 C 382.8905 360.16797 379.23438 356.58625 379.23438 352.16797 L 379.23438 278.16797 C 379.23438 273.7497 382.8905 270.16797 387.40058 270.16797 Z" fill="url(#Obj_Gradient_2)"/>
          <path d="M 387.40058 270.16797 L 1146.8572 270.16797 C 1151.3673 270.16797 1155.0234 273.7497 1155.0234 278.16797 L 1155.0234 352.16797 C 1155.0234 356.58625 1151.3673 360.16797 1146.8572 360.16797 L 387.40058 360.16797 C 382.8905 360.16797 379.23438 356.58625 379.23438 352.16797 L 379.23438 278.16797 C 379.23438 273.7497 382.8905 270.16797 387.40058 270.16797 Z" stroke="#7b1fa2" stroke-linecap="butt" stroke-linejoin="round" stroke-width="2"/>
        </g>
        <g id="Graphic_124">
          <title>Text</title>
          <text transform="translate(666.239 276.3877)" fill="#7b1fa2">
            <tspan font-family="Helvetica" font-size="14" fill="#7b1fa2" x="0" y="14" xml:space="preserve">Presentation Layer (104 files)</tspan>
          </text>
        </g>
        <g id="Group_167">
          <g id="Graphic_123">
            <path d="M 404.28726 305.16797 L 614.1301 305.16797 C 617.1799 305.16797 619.6523 307.40655 619.6523 310.16797 L 619.6523 340.16797 C 619.6523 342.9294 617.1799 345.16797 614.1301 345.16797 L 404.28726 345.16797 C 401.23745 345.16797 398.7651 342.9294 398.7651 340.16797 L 398.7651 310.16797 C 398.7651 307.40655 401.23745 305.16797 404.28726 305.16797 Z" fill="white"/>
            <path d="M 404.28726 305.16797 L 614.1301 305.16797 C 617.1799 305.16797 619.6523 307.40655 619.6523 310.16797 L 619.6523 340.16797 C 619.6523 342.9294 617.1799 345.16797 614.1301 345.16797 L 404.28726 345.16797 C 401.23745 345.16797 398.7651 342.9294 398.7651 340.16797 L 398.7651 310.16797 C 398.7651 307.40655 401.23745 305.16797 404.28726 305.16797 Z" stroke="#7b1fa2" stroke-linecap="butt" stroke-linejoin="round" stroke-width="1"/>
          </g>
          <g id="Graphic_122">
            <title>Text</title>
            <text transform="translate(456.54197 310.92773)" fill="#333">
              <tspan font-family="Helvetica" font-size="12" fill="#333" x="0" y="11" xml:space="preserve">Terminal Interface</tspan>
            </text>
          </g>
          <g id="Graphic_121">
            <title>Text</title>
            <text transform="translate(474.5279 327.46777)" fill="#666">
              <tspan font-family="Helvetica" font-size="10" fill="#666" x="0" y="10" xml:space="preserve">User Interface</tspan>
            </text>
          </g>
        </g>
        <g id="Group_168">
          <g id="Graphic_120">
            <path d="M 658.0193 305.16797 L 867.8621 305.16797 C 870.9119 305.16797 873.3843 307.40655 873.3843 310.16797 L 873.3843 340.16797 C 873.3843 342.9294 870.9119 345.16797 867.8621 345.16797 L 658.0193 345.16797 C 654.96946 345.16797 652.4971 342.9294 652.4971 340.16797 L 652.4971 310.16797 C 652.4971 307.40655 654.96946 305.16797 658.0193 305.16797 Z" fill="white"/>
            <path d="M 658.0193 305.16797 L 867.8621 305.16797 C 870.9119 305.16797 873.3843 307.40655 873.3843 310.16797 L 873.3843 340.16797 C 873.3843 342.9294 870.9119 345.16797 867.8621 345.16797 L 658.0193 345.16797 C 654.96946 345.16797 652.4971 342.9294 652.4971 340.16797 L 652.4971 310.16797 C 652.4971 307.40655 654.96946 305.16797 658.0193 305.16797 Z" stroke="#7b1fa2" stroke-linecap="butt" stroke-linejoin="round" stroke-width="1"/>
          </g>
          <g id="Graphic_119">
            <title>Text</title>
            <text transform="translate(721.80585 310.92773)" fill="#333">
              <tspan font-family="Helvetica" font-size="12" fill="#333" x="0" y="11" xml:space="preserve">Web Interface</tspan>
            </text>
          </g>
          <g id="Graphic_118">
            <title>Text</title>
            <text transform="translate(724.05355 327.46777)" fill="#666">
              <tspan font-family="Helvetica" font-size="10" fill="#666" x="0" y="10" xml:space="preserve">Web Integration</tspan>
            </text>
          </g>
        </g>
        <g id="Group_169">
          <g id="Graphic_117">
            <path d="M 919.9062 305.16797 L 1129.7491 305.16797 C 1132.7989 305.16797 1135.2713 307.40655 1135.2713 310.16797 L 1135.2713 340.16797 C 1135.2713 342.9294 1132.7989 345.16797 1129.7491 345.16797 L 919.9062 345.16797 C 916.8564 345.16797 914.3841 342.9294 914.3841 340.16797 L 914.3841 310.16797 C 914.3841 307.40655 916.8564 305.16797 919.9062 305.16797 Z" fill="white"/>
            <path d="M 919.9062 305.16797 L 1129.7491 305.16797 C 1132.7989 305.16797 1135.2713 307.40655 1135.2713 310.16797 L 1135.2713 340.16797 C 1135.2713 342.9294 1132.7989 345.16797 1129.7491 345.16797 L 919.9062 345.16797 C 916.8564 345.16797 914.3841 342.9294 914.3841 340.16797 L 914.3841 310.16797 C 914.3841 307.40655 916.8564 305.16797 919.9062 305.16797 Z" stroke="#7b1fa2" stroke-linecap="butt" stroke-linejoin="round" stroke-width="1"/>
          </g>
          <g id="Graphic_116">
            <title>Text</title>
            <text transform="translate(973.6202 310.92773)" fill="#333">
              <tspan font-family="Helvetica" font-size="12" fill="#333" x="0" y="11" xml:space="preserve">Reporting Engine</tspan>
            </text>
          </g>
          <g id="Graphic_115">
            <title>Text</title>
            <text transform="translate(1005.492 327.46777)" fill="#666">
              <tspan font-family="Helvetica" font-size="10" fill="#666" x="0" y="10" xml:space="preserve">Reports</tspan>
            </text>
          </g>
        </g>
      </g>
      <g id="Group_166">
        <g id="Graphic_113">
          <path d="M 387.40058 383.28223 L 1146.8572 383.28223 C 1151.3673 383.28223 1155.0234 386.86395 1155.0234 391.28223 L 1155.0234 465.2822 C 1155.0234 469.7005 1151.3673 473.2822 1146.8572 473.2822 L 387.40058 473.2822 C 382.8905 473.2822 379.23438 469.7005 379.23438 465.2822 L 379.23438 391.28223 C 379.23438 386.86395 382.8905 383.28223 387.40058 383.28223 Z" fill="url(#Obj_Gradient_3)"/>
          <path d="M 387.40058 383.28223 L 1146.8572 383.28223 C 1151.3673 383.28223 1155.0234 386.86395 1155.0234 391.28223 L 1155.0234 465.2822 C 1155.0234 469.7005 1151.3673 473.2822 1146.8572 473.2822 L 387.40058 473.2822 C 382.8905 473.2822 379.23438 469.7005 379.23438 465.2822 L 379.23438 391.28223 C 379.23438 386.86395 382.8905 383.28223 387.40058 383.28223 Z" stroke="#388e3c" stroke-linecap="butt" stroke-linejoin="round" stroke-width="2"/>
        </g>
        <g id="Graphic_112">
          <title>Text</title>
          <text transform="translate(665.46394 389.50195)" fill="#388e3c">
            <tspan font-family="Helvetica" font-size="14" fill="#388e3c" x="0" y="14" xml:space="preserve">Application Layer (1,176 files)</tspan>
          </text>
        </g>
        <g id="Group_165">
          <g id="Graphic_111">
            <path d="M 404.0994 418.28223 L 612.9657 418.28223 C 615.7122 418.28223 617.9387 420.5208 617.9387 423.28223 L 617.9387 453.2822 C 617.9387 456.04365 615.7122 458.2822 612.9657 458.2822 L 404.0994 458.2822 C 401.3529 458.2822 399.1264 456.04365 399.1264 453.2822 L 399.1264 423.28223 C 399.1264 420.5208 401.3529 418.28223 404.0994 418.28223 Z" fill="white"/>
            <path d="M 404.0994 418.28223 L 612.9657 418.28223 C 615.7122 418.28223 617.9387 420.5208 617.9387 423.28223 L 617.9387 453.2822 C 617.9387 456.04365 615.7122 458.2822 612.9657 458.2822 L 404.0994 458.2822 C 401.3529 458.2822 399.1264 456.04365 399.1264 453.2822 L 399.1264 423.28223 C 399.1264 420.5208 401.3529 418.28223 404.0994 418.28223 Z" stroke="#388e3c" stroke-linecap="butt" stroke-linejoin="round" stroke-width="1"/>
          </g>
          <g id="Graphic_110">
            <title>Text</title>
            <text transform="translate(468.394 424.042)" fill="#333">
              <tspan font-family="Helvetica" font-size="12" fill="#333" x="0" y="11" xml:space="preserve">Business Logic</tspan>
            </text>
          </g>
          <g id="Graphic_109">
            <title>Text</title>
            <text transform="translate(490.01004 440.58203)" fill="#666">
              <tspan font-family="Helvetica" font-size="10" fill="#666" x="0" y="10" xml:space="preserve">304 files</tspan>
            </text>
          </g>
        </g>
        <g id="Group_164">
          <g id="Graphic_108">
            <path d="M 658.50756 418.28223 L 867.3738 418.28223 C 870.1204 418.28223 872.3469 420.5208 872.3469 423.28223 L 872.3469 453.2822 C 872.3469 456.04365 870.1204 458.2822 867.3738 458.2822 L 658.50756 458.2822 C 655.76104 458.2822 653.53455 456.04365 653.53455 453.2822 L 653.53455 423.28223 C 653.53455 420.5208 655.76104 418.28223 658.50756 418.28223 Z" fill="white"/>
            <path d="M 658.50756 418.28223 L 867.3738 418.28223 C 870.1204 418.28223 872.3469 420.5208 872.3469 423.28223 L 872.3469 453.2822 C 872.3469 456.04365 870.1204 458.2822 867.3738 458.2822 L 658.50756 458.2822 C 655.76104 458.2822 653.53455 456.04365 653.53455 453.2822 L 653.53455 423.28223 C 653.53455 420.5208 655.76104 418.28223 658.50756 418.28223 Z" stroke="#388e3c" stroke-linecap="butt" stroke-linejoin="round" stroke-width="1"/>
          </g>
          <g id="Graphic_107">
            <title>Text</title>
            <text transform="translate(728.7697 424.042)" fill="#333">
              <tspan font-family="Helvetica" font-size="12" fill="#333" x="0" y="11" xml:space="preserve">Maintenance</tspan>
            </text>
          </g>
          <g id="Graphic_106">
            <title>Text</title>
            <text transform="translate(744.4182 440.58203)" fill="#666">
              <tspan font-family="Helvetica" font-size="10" fill="#666" x="0" y="10" xml:space="preserve">129 files</tspan>
            </text>
          </g>
        </g>
        <g id="Group_163">
          <g id="Graphic_105">
            <path d="M 921.2921 418.28223 L 1130.1584 418.28223 C 1132.9049 418.28223 1135.1314 420.5208 1135.1314 423.28223 L 1135.1314 453.2822 C 1135.1314 456.04365 1132.9049 458.2822 1130.1584 458.2822 L 921.2921 458.2822 C 918.5456 458.2822 916.3191 456.04365 916.3191 453.2822 L 916.3191 423.28223 C 916.3191 420.5208 918.5456 418.28223 921.2921 418.28223 Z" fill="white"/>
            <path d="M 921.2921 418.28223 L 1130.1584 418.28223 C 1132.9049 418.28223 1135.1314 420.5208 1135.1314 423.28223 L 1135.1314 453.2822 C 1135.1314 456.04365 1132.9049 458.2822 1130.1584 458.2822 L 921.2921 458.2822 C 918.5456 458.2822 916.3191 456.04365 916.3191 453.2822 L 916.3191 423.28223 C 916.3191 420.5208 918.5456 418.28223 921.2921 418.28223 Z" stroke="#388e3c" stroke-linecap="butt" stroke-linejoin="round" stroke-width="1"/>
          </g>
          <g id="Graphic_104">
            <title>Text</title>
            <text transform="translate(999.8501 424.042)" fill="#333">
              <tspan font-family="Helvetica" font-size="12" fill="#333" x="0" y="11" xml:space="preserve">Reporting</tspan>
            </text>
          </g>
          <g id="Graphic_103">
            <title>Text</title>
            <text transform="translate(1007.2028 440.58203)" fill="#666">
              <tspan font-family="Helvetica" font-size="10" fill="#666" x="0" y="10" xml:space="preserve">155 files</tspan>
            </text>
          </g>
        </g>
      </g>
      <g id="Group_186">
        <g id="Graphic_101">
          <path d="M 378.93046 511.9155 L 742.284 511.9155 C 744.4418 511.9155 746.191 515.8793 746.191 520.76886 L 746.191 635.8622 C 746.191 640.75176 744.4418 644.7155 742.284 644.7155 L 378.93046 644.7155 C 376.77267 644.7155 375.02344 640.75176 375.02344 635.8622 L 375.02344 520.76886 C 375.02344 515.8793 376.77267 511.9155 378.93046 511.9155 Z" fill="url(#Obj_Gradient_4)"/>
          <path d="M 378.93046 511.9155 L 742.284 511.9155 C 744.4418 511.9155 746.191 515.8793 746.191 520.76886 L 746.191 635.8622 C 746.191 640.75176 744.4418 644.7155 742.284 644.7155 L 378.93046 644.7155 C 376.77267 644.7155 375.02344 640.75176 375.02344 635.8622 L 375.02344 520.76886 C 375.02344 515.8793 376.77267 511.9155 378.93046 511.9155 Z" stroke="#f57c00" stroke-linecap="butt" stroke-linejoin="round" stroke-width="2"/>
        </g>
        <g id="Graphic_100">
          <title>Text</title>
          <text transform="translate(475.39386 519.8501)" fill="#f57c00">
            <tspan font-family="Helvetica" font-size="14" fill="#f57c00" x="0" y="14" xml:space="preserve">Integration Layer (918 files)</tspan>
          </text>
        </g>
        <g id="Group_157">
          <g id="Graphic_99">
            <path d="M 389.1094 549.5327 L 549.1094 549.5327 C 551.8708 549.5327 554.1094 551.4915 554.1094 553.9077 L 554.1094 580.1577 C 554.1094 582.57396 551.8708 584.5327 549.1094 584.5327 L 389.1094 584.5327 C 386.34796 584.5327 384.1094 582.57396 384.1094 580.1577 L 384.1094 553.9077 C 384.1094 551.4915 386.34796 549.5327 389.1094 549.5327 Z" fill="white"/>
            <path d="M 389.1094 549.5327 L 549.1094 549.5327 C 551.8708 549.5327 554.1094 551.4915 554.1094 553.9077 L 554.1094 580.1577 C 554.1094 582.57396 551.8708 584.5327 549.1094 584.5327 L 389.1094 584.5327 C 386.34796 584.5327 384.1094 582.57396 384.1094 580.1577 L 384.1094 553.9077 C 384.1094 551.4915 386.34796 549.5327 389.1094 549.5327 Z" stroke="#f57c00" stroke-linecap="butt" stroke-linejoin="round" stroke-width="1"/>
          </g>
          <g id="Graphic_98">
            <title>Text</title>
            <text transform="translate(430.37843 553.5625)" fill="#333">
              <tspan font-family="Helvetica" font-size="11" fill="#333" x="0" y="10" xml:space="preserve">Web Integration</tspan>
            </text>
          </g>
          <g id="Graphic_97">
            <title>Text</title>
            <text transform="translate(457.354 570.10254)" fill="#666">
              <tspan font-family="Helvetica" font-size="9" fill="#666" x="0" y="9" xml:space="preserve">9 files</tspan>
            </text>
          </g>
        </g>
        <g id="Group_158">
          <g id="Graphic_96">
            <path d="M 389.1094 593.0425 L 549.1094 593.0425 C 551.8708 593.0425 554.1094 595.0012 554.1094 597.4175 L 554.1094 623.6675 C 554.1094 626.0837 551.8708 628.0425 549.1094 628.0425 L 389.1094 628.0425 C 386.34796 628.0425 384.1094 626.0837 384.1094 623.6675 L 384.1094 597.4175 C 384.1094 595.0012 386.34796 593.0425 389.1094 593.0425 Z" fill="white"/>
            <path d="M 389.1094 593.0425 L 549.1094 593.0425 C 551.8708 593.0425 554.1094 595.0012 554.1094 597.4175 L 554.1094 623.6675 C 554.1094 626.0837 551.8708 628.0425 549.1094 628.0425 L 389.1094 628.0425 C 386.34796 628.0425 384.1094 626.0837 384.1094 623.6675 L 384.1094 597.4175 C 384.1094 595.0012 386.34796 593.0425 389.1094 593.0425 Z" stroke="#f57c00" stroke-linecap="butt" stroke-linejoin="round" stroke-width="1"/>
          </g>
          <g id="Graphic_95">
            <title>Text</title>
            <text transform="translate(428.75636 597.0723)" fill="#333">
              <tspan font-family="Helvetica" font-size="11" fill="#333" x="0" y="10" xml:space="preserve">Data Processing</tspan>
            </text>
          </g>
          <g id="Graphic_94">
            <title>Text</title>
            <text transform="translate(454.85133 613.6123)" fill="#666">
              <tspan font-family="Helvetica" font-size="9" fill="#666" x="0" y="9" xml:space="preserve">85 files</tspan>
            </text>
          </g>
        </g>
        <g id="Group_159">
          <g id="Graphic_93">
            <path d="M 568.3535 549.5327 L 728.3535 549.5327 C 731.11495 549.5327 733.3535 551.4915 733.3535 553.9077 L 733.3535 580.1577 C 733.3535 582.57396 731.11495 584.5327 728.3535 584.5327 L 568.3535 584.5327 C 565.5921 584.5327 563.3535 582.57396 563.3535 580.1577 L 563.3535 553.9077 C 563.3535 551.4915 565.5921 549.5327 568.3535 549.5327 Z" fill="white"/>
            <path d="M 568.3535 549.5327 L 728.3535 549.5327 C 731.11495 549.5327 733.3535 551.4915 733.3535 553.9077 L 733.3535 580.1577 C 733.3535 582.57396 731.11495 584.5327 728.3535 584.5327 L 568.3535 584.5327 C 565.5921 584.5327 563.3535 582.57396 563.3535 580.1577 L 563.3535 553.9077 C 563.3535 551.4915 565.5921 549.5327 568.3535 549.5327 Z" stroke="#f57c00" stroke-linecap="butt" stroke-linejoin="round" stroke-width="1"/>
          </g>
          <g id="Graphic_92">
            <title>Text</title>
            <text transform="translate(605.55934 553.5625)" fill="#333">
              <tspan font-family="Helvetica" font-size="11" fill="#333" x="0" y="10" xml:space="preserve">External Services</tspan>
            </text>
          </g>
          <g id="Graphic_91">
            <title>Text</title>
            <text transform="translate(631.5928 570.10254)" fill="#666">
              <tspan font-family="Helvetica" font-size="9" fill="#666" x="0" y="9" xml:space="preserve">122 files</tspan>
            </text>
          </g>
        </g>
        <g id="Group_160">
          <g id="Graphic_90">
            <path d="M 568.3535 593.0425 L 728.3535 593.0425 C 731.11495 593.0425 733.3535 595.0012 733.3535 597.4175 L 733.3535 623.6675 C 733.3535 626.0837 731.11495 628.0425 728.3535 628.0425 L 568.3535 628.0425 C 565.5921 628.0425 563.3535 626.0837 563.3535 623.6675 L 563.3535 597.4175 C 563.3535 595.0012 565.5921 593.0425 568.3535 593.0425 Z" fill="white"/>
            <path d="M 568.3535 593.0425 L 728.3535 593.0425 C 731.11495 593.0425 733.3535 595.0012 733.3535 597.4175 L 733.3535 623.6675 C 733.3535 626.0837 731.11495 628.0425 728.3535 628.0425 L 568.3535 628.0425 C 565.5921 628.0425 563.3535 626.0837 563.3535 623.6675 L 563.3535 597.4175 C 563.3535 595.0012 565.5921 593.0425 568.3535 593.0425 Z" stroke="#f57c00" stroke-linecap="butt" stroke-linejoin="round" stroke-width="1"/>
          </g>
          <g id="Graphic_89">
            <title>Text</title>
            <text transform="translate(610.7559 597.0723)" fill="#333">
              <tspan font-family="Helvetica" font-size="11" fill="#333" x="0" y="10" xml:space="preserve">File Processing</tspan>
            </text>
          </g>
          <g id="Graphic_88">
            <title>Text</title>
            <text transform="translate(631.5928 613.6123)" fill="#666">
              <tspan font-family="Helvetica" font-size="9" fill="#666" x="0" y="9" xml:space="preserve">243 files</tspan>
            </text>
          </g>
        </g>
      </g>
      <g id="Group_162">
        <g id="Graphic_86">
          <path d="M 383.23396 681.8574 L 1146.8129 681.8574 C 1151.3475 681.8574 1155.0234 684.74845 1155.0234 688.3147 L 1155.0234 772.2595 C 1155.0234 775.8258 1151.3475 778.7168 1146.8129 778.7168 L 383.23396 778.7168 C 378.6994 778.7168 375.02344 775.8258 375.02344 772.2595 L 375.02344 688.3147 C 375.02344 684.74845 378.6994 681.8574 383.23396 681.8574 Z" fill="url(#Obj_Gradient_5)"/>
          <path d="M 383.23396 681.8574 L 1146.8129 681.8574 C 1151.3475 681.8574 1155.0234 684.74845 1155.0234 688.3147 L 1155.0234 772.2595 C 1155.0234 775.8258 1151.3475 778.7168 1146.8129 778.7168 L 383.23396 778.7168 C 378.6994 778.7168 375.02344 775.8258 375.02344 772.2595 L 375.02344 688.3147 C 375.02344 684.74845 378.6994 681.8574 383.23396 681.8574 Z" stroke="#c2185b" stroke-linecap="butt" stroke-linejoin="round" stroke-width="2"/>
        </g>
        <g id="Graphic_85">
          <title>Text</title>
          <text transform="translate(688.103 688.07715)" fill="#c2185b">
            <tspan font-family="Helvetica" font-size="14" fill="#c2185b" x="0" y="14" xml:space="preserve">Data Layer (874 files)</tspan>
          </text>
        </g>
        <g id="Graphic_84">
          <path d="M 400.02344 716.8574 L 560.02344 716.8574 C 562.78486 716.8574 565.02344 719.096 565.02344 721.8574 L 565.02344 751.8574 C 565.02344 754.61885 562.78486 756.8574 560.02344 756.8574 L 400.02344 756.8574 C 397.262 756.8574 395.02344 754.61885 395.02344 751.8574 L 395.02344 721.8574 C 395.02344 719.096 397.262 716.8574 400.02344 716.8574 Z" fill="white"/>
          <path d="M 400.02344 716.8574 L 560.02344 716.8574 C 562.78486 716.8574 565.02344 719.096 565.02344 721.8574 L 565.02344 751.8574 C 565.02344 754.61885 562.78486 756.8574 560.02344 756.8574 L 400.02344 756.8574 C 397.262 756.8574 395.02344 754.61885 395.02344 751.8574 L 395.02344 721.8574 C 395.02344 719.096 397.262 716.8574 400.02344 716.8574 Z" stroke="#c2185b" stroke-linecap="butt" stroke-linejoin="round" stroke-width="1"/>
        </g>
        <g id="Graphic_83">
          <title>Text</title>
          <text transform="translate(456.27246 723.3872)" fill="#333">
            <tspan font-family="Helvetica" font-size="11" fill="#333" x="0" y="10" xml:space="preserve">Validation</tspan>
          </text>
        </g>
        <g id="Graphic_82">
          <title>Text</title>
          <text transform="translate(468.26807 739.92725)" fill="#666">
            <tspan font-family="Helvetica" font-size="9" fill="#666" x="0" y="9" xml:space="preserve">2 files</tspan>
          </text>
        </g>
        <g id="Graphic_81">
          <path d="M 590.02344 716.8574 L 750.0234 716.8574 C 752.7849 716.8574 755.0234 719.096 755.0234 721.8574 L 755.0234 751.8574 C 755.0234 754.61885 752.7849 756.8574 750.0234 756.8574 L 590.02344 756.8574 C 587.262 756.8574 585.02344 754.61885 585.02344 751.8574 L 585.02344 721.8574 C 585.02344 719.096 587.262 716.8574 590.02344 716.8574 Z" fill="white"/>
          <path d="M 590.02344 716.8574 L 750.0234 716.8574 C 752.7849 716.8574 755.0234 719.096 755.0234 721.8574 L 755.0234 751.8574 C 755.0234 754.61885 752.7849 756.8574 750.0234 756.8574 L 590.02344 756.8574 C 587.262 756.8574 585.02344 754.61885 585.02344 751.8574 L 585.02344 721.8574 C 585.02344 719.096 587.262 716.8574 590.02344 716.8574 Z" stroke="#c2185b" stroke-linecap="butt" stroke-linejoin="round" stroke-width="1"/>
        </g>
        <g id="Graphic_80">
          <title>Text</title>
          <text transform="translate(648.3215 723.3872)" fill="#333">
            <tspan font-family="Helvetica" font-size="11" fill="#333" x="0" y="10" xml:space="preserve">Retrieval</tspan>
          </text>
        </g>
        <g id="Graphic_79">
          <title>Text</title>
          <text transform="translate(655.7654 739.92725)" fill="#666">
            <tspan font-family="Helvetica" font-size="9" fill="#666" x="0" y="9" xml:space="preserve">43 files</tspan>
          </text>
        </g>
        <g id="Graphic_78">
          <path d="M 780.0234 716.8574 L 940.0234 716.8574 C 942.7849 716.8574 945.0234 719.096 945.0234 721.8574 L 945.0234 751.8574 C 945.0234 754.61885 942.7849 756.8574 940.0234 756.8574 L 780.0234 756.8574 C 777.262 756.8574 775.0234 754.61885 775.0234 751.8574 L 775.0234 721.8574 C 775.0234 719.096 777.262 716.8574 780.0234 716.8574 Z" fill="white"/>
          <path d="M 780.0234 716.8574 L 940.0234 716.8574 C 942.7849 716.8574 945.0234 719.096 945.0234 721.8574 L 945.0234 751.8574 C 945.0234 754.61885 942.7849 756.8574 940.0234 756.8574 L 780.0234 756.8574 C 777.262 756.8574 775.0234 754.61885 775.0234 751.8574 L 775.0234 721.8574 C 775.0234 719.096 777.262 716.8574 780.0234 716.8574 Z" stroke="#c2185b" stroke-linecap="butt" stroke-linejoin="round" stroke-width="1"/>
        </g>
        <g id="Graphic_77">
          <title>Text</title>
          <text transform="translate(828.53 723.3872)" fill="#333">
            <tspan font-family="Helvetica" font-size="11" fill="#333" x="0" y="10" xml:space="preserve">Maintenance</tspan>
          </text>
        </g>
        <g id="Graphic_76">
          <title>Text</title>
          <text transform="translate(843.2627 739.92725)" fill="#666">
            <tspan font-family="Helvetica" font-size="9" fill="#666" x="0" y="9" xml:space="preserve">331 files</tspan>
          </text>
        </g>
        <g id="Graphic_75">
          <path d="M 970.0234 716.8574 L 1130.0234 716.8574 C 1132.7849 716.8574 1135.0234 719.096 1135.0234 721.8574 L 1135.0234 751.8574 C 1135.0234 754.61885 1132.7849 756.8574 1130.0234 756.8574 L 970.0234 756.8574 C 967.262 756.8574 965.0234 754.61885 965.0234 751.8574 L 965.0234 721.8574 C 965.0234 719.096 967.262 716.8574 970.0234 716.8574 Z" fill="white"/>
          <path d="M 970.0234 716.8574 L 1130.0234 716.8574 C 1132.7849 716.8574 1135.0234 719.096 1135.0234 721.8574 L 1135.0234 751.8574 C 1135.0234 754.61885 1132.7849 756.8574 1130.0234 756.8574 L 970.0234 756.8574 C 967.262 756.8574 965.0234 754.61885 965.0234 751.8574 L 965.0234 721.8574 C 965.0234 719.096 967.262 716.8574 970.0234 716.8574 Z" stroke="#c2185b" stroke-linecap="butt" stroke-linejoin="round" stroke-width="1"/>
        </g>
        <g id="Graphic_74">
          <title>Text</title>
          <text transform="translate(1027.4031 723.3872)" fill="#333">
            <tspan font-family="Helvetica" font-size="11" fill="#333" x="0" y="10" xml:space="preserve">Migration</tspan>
          </text>
        </g>
        <g id="Graphic_73">
          <title>Text</title>
          <text transform="translate(1035.7654 739.92725)" fill="#666">
            <tspan font-family="Helvetica" font-size="9" fill="#666" x="0" y="9" xml:space="preserve">61 files</tspan>
          </text>
        </g>
      </g>
      <g id="Group_187">
        <g id="Graphic_71">
          <path d="M 785.298 511.9155 L 1151.0902 511.9155 C 1153.2625 511.9155 1155.0234 516.67205 1155.0234 522.5395 L 1155.0234 634.0915 C 1155.0234 639.959 1153.2625 644.7155 1151.0902 644.7155 L 785.298 644.7155 C 783.1257 644.7155 781.36475 639.959 781.36475 634.0915 L 781.36475 522.5395 C 781.36475 516.67205 783.1257 511.9155 785.298 511.9155 Z" fill="url(#Obj_Gradient_6)"/>
          <path d="M 785.298 511.9155 L 1151.0902 511.9155 C 1153.2625 511.9155 1155.0234 516.67205 1155.0234 522.5395 L 1155.0234 634.0915 C 1155.0234 639.959 1153.2625 644.7155 1151.0902 644.7155 L 785.298 644.7155 C 783.1257 644.7155 781.36475 639.959 781.36475 634.0915 L 781.36475 522.5395 C 781.36475 516.67205 783.1257 511.9155 785.298 511.9155 Z" stroke="#689f38" stroke-linecap="butt" stroke-linejoin="round" stroke-width="2"/>
        </g>
        <g id="Graphic_70">
          <title>Text</title>
          <text transform="translate(870.8745 520.6073)" fill="#689f38">
            <tspan font-family="Helvetica" font-size="14" fill="#689f38" x="0" y="14" xml:space="preserve">Cross-Cutting Concerns (42 files)</tspan>
          </text>
        </g>
        <g id="Group_148">
          <g id="Graphic_69">
            <path d="M 798.3434 549.16005 L 959.0253 549.16005 C 961.9834 549.16005 964.3814 551.3986 964.3814 554.16005 L 964.3814 579.16005 C 964.3814 581.9215 961.9834 584.16005 959.0253 584.16005 L 798.3434 584.16005 C 795.3853 584.16005 792.9873 581.9215 792.9873 579.16005 L 792.9873 554.16005 C 792.9873 551.3986 795.3853 549.16005 798.3434 549.16005 Z" fill="white"/>
            <path d="M 798.3434 549.16005 L 959.0253 549.16005 C 961.9834 549.16005 964.3814 551.3986 964.3814 554.16005 L 964.3814 579.16005 C 964.3814 581.9215 961.9834 584.16005 959.0253 584.16005 L 798.3434 584.16005 C 795.3853 584.16005 792.9873 581.9215 792.9873 579.16005 L 792.9873 554.16005 C 792.9873 551.3986 795.3853 549.16005 798.3434 549.16005 Z" stroke="#689f38" stroke-linecap="butt" stroke-linejoin="round" stroke-width="1"/>
          </g>
          <g id="Graphic_68">
            <title>Text</title>
            <text transform="translate(838.4006 555.6898)" fill="#333">
              <tspan font-family="Helvetica" font-size="11" fill="#333" x="0" y="10" xml:space="preserve">Security &amp; Auth</tspan>
            </text>
          </g>
          <g id="Graphic_67">
            <title>Text</title>
            <text transform="translate(848.1328 568.2299)" fill="#666">
              <tspan font-family="Helvetica" font-size="9" fill="#666" x="0" y="9" xml:space="preserve">Authentication</tspan>
            </text>
          </g>
        </g>
        <g id="Group_149">
          <g id="Graphic_66">
            <path d="M 798.3434 593.1132 L 959.0253 593.1132 C 961.9834 593.1132 964.3814 595.35175 964.3814 598.1132 L 964.3814 623.1132 C 964.3814 625.8746 961.9834 628.1132 959.0253 628.1132 L 798.3434 628.1132 C 795.3853 628.1132 792.9873 625.8746 792.9873 623.1132 L 792.9873 598.1132 C 792.9873 595.35175 795.3853 593.1132 798.3434 593.1132 Z" fill="white"/>
            <path d="M 798.3434 593.1132 L 959.0253 593.1132 C 961.9834 593.1132 964.3814 595.35175 964.3814 598.1132 L 964.3814 623.1132 C 964.3814 625.8746 961.9834 628.1132 959.0253 628.1132 L 798.3434 628.1132 C 795.3853 628.1132 792.9873 625.8746 792.9873 623.1132 L 792.9873 598.1132 C 792.9873 595.35175 795.3853 593.1132 798.3434 593.1132 Z" stroke="#689f38" stroke-linecap="butt" stroke-linejoin="round" stroke-width="1"/>
          </g>
          <g id="Graphic_65">
            <title>Text</title>
            <text transform="translate(857.3932 599.64296)" fill="#333">
              <tspan font-family="Helvetica" font-size="11" fill="#333" x="0" y="10" xml:space="preserve">Auditing</tspan>
            </text>
          </g>
          <g id="Graphic_64">
            <title>Text</title>
            <text transform="translate(842.2367 612.183)" fill="#666">
              <tspan font-family="Helvetica" font-size="9" fill="#666" x="0" y="9" xml:space="preserve">Change Tracking</tspan>
            </text>
          </g>
        </g>
        <g id="Group_150">
          <g id="Graphic_63">
            <path d="M 978.0459 549.16005 L 1138.7279 549.16005 C 1141.686 549.16005 1144.084 551.3986 1144.084 554.16005 L 1144.084 579.16005 C 1144.084 581.9215 1141.686 584.16005 1138.7279 584.16005 L 978.0459 584.16005 C 975.0878 584.16005 972.6898 581.9215 972.6898 579.16005 L 972.6898 554.16005 C 972.6898 551.3986 975.0878 549.16005 978.0459 549.16005 Z" fill="white"/>
            <path d="M 978.0459 549.16005 L 1138.7279 549.16005 C 1141.686 549.16005 1144.084 551.3986 1144.084 554.16005 L 1144.084 579.16005 C 1144.084 581.9215 1141.686 584.16005 1138.7279 584.16005 L 978.0459 584.16005 C 975.0878 584.16005 972.6898 581.9215 972.6898 579.16005 L 972.6898 554.16005 C 972.6898 551.3986 975.0878 549.16005 978.0459 549.16005 Z" stroke="#689f38" stroke-linecap="butt" stroke-linejoin="round" stroke-width="1"/>
          </g>
          <g id="Graphic_62">
            <title>Text</title>
            <text transform="translate(1024.6594 555.6898)" fill="#333">
              <tspan font-family="Helvetica" font-size="11" fill="#333" x="0" y="10" xml:space="preserve">Performance</tspan>
            </text>
          </g>
          <g id="Graphic_61">
            <title>Text</title>
            <text transform="translate(1027.5741 568.2299)" fill="#666">
              <tspan font-family="Helvetica" font-size="9" fill="#666" x="0" y="9" xml:space="preserve">Benchmarking</tspan>
            </text>
          </g>
        </g>
        <g id="Group_151">
          <g id="Graphic_60">
            <path d="M 978.0459 593.1132 L 1138.7279 593.1132 C 1141.686 593.1132 1144.084 595.35175 1144.084 598.1132 L 1144.084 623.1132 C 1144.084 625.8746 1141.686 628.1132 1138.7279 628.1132 L 978.0459 628.1132 C 975.0878 628.1132 972.6898 625.8746 972.6898 623.1132 L 972.6898 598.1132 C 972.6898 595.35175 975.0878 593.1132 978.0459 593.1132 Z" fill="white"/>
            <path d="M 978.0459 593.1132 L 1138.7279 593.1132 C 1141.686 593.1132 1144.084 595.35175 1144.084 598.1132 L 1144.084 623.1132 C 1144.084 625.8746 1141.686 628.1132 1138.7279 628.1132 L 978.0459 628.1132 C 975.0878 628.1132 972.6898 625.8746 972.6898 623.1132 L 972.6898 598.1132 C 972.6898 595.35175 975.0878 593.1132 978.0459 593.1132 Z" stroke="#689f38" stroke-linecap="butt" stroke-linejoin="round" stroke-width="1"/>
          </g>
          <g id="Graphic_59">
            <title>Text</title>
            <text transform="translate(1027.9331 599.64296)" fill="#333">
              <tspan font-family="Helvetica" font-size="11" fill="#333" x="0" y="10" xml:space="preserve">Diagnostics</tspan>
            </text>
          </g>
          <g id="Graphic_58">
            <title>Text</title>
            <text transform="translate(1023.8293 612.183)" fill="#666">
              <tspan font-family="Helvetica" font-size="9" fill="#666" x="0" y="9" xml:space="preserve">Error Monitoring</tspan>
            </text>
          </g>
        </g>
      </g>
      <g id="Group_171">
        <g id="Graphic_56">
          <path d="M 384.77344 815.7168 L 1145.2734 815.7168 C 1150.6582 815.7168 1155.0234 820.19395 1155.0234 825.7168 L 1155.0234 925.7168 C 1155.0234 931.2396 1150.6582 935.7168 1145.2734 935.7168 L 384.77344 935.7168 C 379.38866 935.7168 375.02344 931.2396 375.02344 925.7168 L 375.02344 825.7168 C 375.02344 820.19395 379.38866 815.7168 384.77344 815.7168 Z" fill="url(#Obj_Gradient_7)"/>
          <path d="M 384.77344 815.7168 L 1145.2734 815.7168 C 1150.6582 815.7168 1155.0234 820.19395 1155.0234 825.7168 L 1155.0234 925.7168 C 1155.0234 931.2396 1150.6582 935.7168 1145.2734 935.7168 L 384.77344 935.7168 C 379.38866 935.7168 375.02344 931.2396 375.02344 925.7168 L 375.02344 825.7168 C 375.02344 820.19395 379.38866 815.7168 384.77344 815.7168 Z" stroke="#00695c" stroke-linecap="butt" stroke-linejoin="round" stroke-width="2"/>
        </g>
        <g id="Graphic_55">
          <title>Text</title>
          <text transform="translate(727.8828 820.3965)" fill="#00695c">
            <tspan font-family="Helvetica" font-size="16" fill="#00695c" x="0" y="15" xml:space="preserve">Data Storage</tspan>
          </text>
        </g>
        <g id="Graphic_54">
          <ellipse cx="525.02344" cy="885.7168" rx="80.0001678322157" ry="35.0000734265944" fill="white"/>
          <ellipse cx="525.02344" cy="885.7168" rx="80.0001678322157" ry="35.0000734265944" stroke="#00695c" stroke-linecap="butt" stroke-linejoin="round" stroke-width="2"/>
        </g>
        <g id="Graphic_53">
          <title>Text</title>
          <text transform="translate(497.45215 869.4766)" fill="#333">
            <tspan font-family="Helvetica" font-size="12" fill="#333" x="0" y="11" xml:space="preserve">MultiValue</tspan>
          </text>
        </g>
        <g id="Graphic_52">
          <title>Text</title>
          <text transform="translate(499.33887 884.4766)" fill="#333">
            <tspan font-family="Helvetica" font-size="12" fill="#333" x="0" y="11" xml:space="preserve">Database</tspan>
          </text>
        </g>
        <g id="Graphic_51">
          <ellipse cx="775.0234" cy="885.7168" rx="80.0001678322157" ry="35.0000734265944" fill="white"/>
          <ellipse cx="775.0234" cy="885.7168" rx="80.0001678322157" ry="35.0000734265944" stroke="#00695c" stroke-linecap="butt" stroke-linejoin="round" stroke-width="2"/>
        </g>
        <g id="Graphic_50">
          <title>Text</title>
          <text transform="translate(763.0176 869.4766)" fill="#333">
            <tspan font-family="Helvetica" font-size="12" fill="#333" x="0" y="11" xml:space="preserve">SQL</tspan>
          </text>
        </g>
        <g id="Graphic_49">
          <title>Text</title>
          <text transform="translate(749.3389 884.4766)" fill="#333">
            <tspan font-family="Helvetica" font-size="12" fill="#333" x="0" y="11" xml:space="preserve">Database</tspan>
          </text>
        </g>
        <g id="Graphic_48">
          <path d="M 960.0234 860.7168 L 1070.0234 860.7168 C 1072.7849 860.7168 1075.0234 862.9554 1075.0234 865.7168 L 1075.0234 905.7168 C 1075.0234 908.4782 1072.7849 910.7168 1070.0234 910.7168 L 960.0234 910.7168 C 957.262 910.7168 955.0234 908.4782 955.0234 905.7168 L 955.0234 865.7168 C 955.0234 862.9554 957.262 860.7168 960.0234 860.7168 Z" fill="white"/>
          <path d="M 960.0234 860.7168 L 1070.0234 860.7168 C 1072.7849 860.7168 1075.0234 862.9554 1075.0234 865.7168 L 1075.0234 905.7168 C 1075.0234 908.4782 1072.7849 910.7168 1070.0234 910.7168 L 960.0234 910.7168 C 957.262 910.7168 955.0234 908.4782 955.0234 905.7168 L 955.0234 865.7168 C 955.0234 862.9554 957.262 860.7168 960.0234 860.7168 Z" stroke="#00695c" stroke-linecap="butt" stroke-linejoin="round" stroke-width="2"/>
        </g>
        <g id="Graphic_47">
          <title>Text</title>
          <text transform="translate(983.6846 869.4766)" fill="#333">
            <tspan font-family="Helvetica" font-size="12" fill="#333" x="0" y="11" xml:space="preserve">File System</tspan>
          </text>
        </g>
        <g id="Graphic_46">
          <title>Text</title>
          <text transform="translate(989.7354 886.0166)" fill="#666">
            <tspan font-family="Helvetica" font-size="10" fill="#666" x="0" y="10" xml:space="preserve">Documents</tspan>
          </text>
        </g>
      </g>
      <g id="Group_10">
        <g id="Graphic_26">
          <path d="M 1214.2344 230.16797 L 1424.2344 230.16797 C 1426.9958 230.16797 1429.2344 232.40655 1429.2344 235.16797 L 1429.2344 425.16797 C 1429.2344 427.9294 1426.9958 430.16797 1424.2344 430.16797 L 1214.2344 430.16797 C 1211.473 430.16797 1209.2344 427.9294 1209.2344 425.16797 L 1209.2344 235.16797 C 1209.2344 232.40655 1211.473 230.16797 1214.2344 230.16797 Z" fill="#f9f9f9"/>
          <path d="M 1214.2344 230.16797 L 1424.2344 230.16797 C 1426.9958 230.16797 1429.2344 232.40655 1429.2344 235.16797 L 1429.2344 425.16797 C 1429.2344 427.9294 1426.9958 430.16797 1424.2344 430.16797 L 1214.2344 430.16797 C 1211.473 430.16797 1209.2344 427.9294 1209.2344 425.16797 L 1209.2344 235.16797 C 1209.2344 232.40655 1211.473 230.16797 1214.2344 230.16797 Z" stroke="#ccc" stroke-linecap="butt" stroke-linejoin="round" stroke-width="1"/>
        </g>
        <g id="Graphic_25">
          <title>Text</title>
          <text transform="translate(1299.2129 238.92773)" fill="#333">
            <tspan font-family="Helvetica" font-size="12" fill="#333" x="0" y="11" xml:space="preserve">Legend</tspan>
          </text>
        </g>
        <g id="Line_24">
          <line x1="1229.2344" y1="270.16797" x2="1259.2344" y2="270.16797" stroke="#666" stroke-linecap="butt" stroke-linejoin="round" stroke-width="2"/>
        </g>
        <g id="Graphic_23">
          <title>Text</title>
          <text transform="translate(1269.2344 265.46777)" fill="#333">
            <tspan font-family="Helvetica" font-size="10" fill="#333" x="0" y="10" xml:space="preserve">Data Flow</tspan>
          </text>
        </g>
        <g id="Line_22">
          <line x1="1229.2344" y1="290.16797" x2="1259.2344" y2="290.16797" stroke="#689f38" stroke-linecap="butt" stroke-linejoin="round" stroke-dasharray="8.0,8.0" stroke-width="2"/>
        </g>
        <g id="Graphic_21">
          <title>Text</title>
          <text transform="translate(1269.2344 285.46777)" fill="#333">
            <tspan font-family="Helvetica" font-size="10" fill="#333" x="0" y="10" xml:space="preserve">Cross-Cutting</tspan>
          </text>
        </g>
        <g id="Graphic_20">
          <rect x="1229.2344" y="310.16797" width="15" height="10" fill="url(#Obj_Gradient_8)"/>
          <rect x="1229.2344" y="310.16797" width="15" height="10" stroke="#388e3c" stroke-linecap="butt" stroke-linejoin="round" stroke-width="1"/>
        </g>
        <g id="Graphic_19">
          <title>Text</title>
          <text transform="translate(1254.2344 309.46777)" fill="#333">
            <tspan font-family="Helvetica" font-size="10" fill="#333" x="0" y="10" xml:space="preserve">Application Layer</tspan>
          </text>
        </g>
        <g id="Graphic_18">
          <rect x="1229.2344" y="330.16797" width="15" height="10" fill="url(#Obj_Gradient_9)"/>
          <rect x="1229.2344" y="330.16797" width="15" height="10" stroke="#f57c00" stroke-linecap="butt" stroke-linejoin="round" stroke-width="1"/>
        </g>
        <g id="Graphic_17">
          <title>Text</title>
          <text transform="translate(1254.2344 329.46777)" fill="#333">
            <tspan font-family="Helvetica" font-size="10" fill="#333" x="0" y="10" xml:space="preserve">Integration Layer</tspan>
          </text>
        </g>
        <g id="Graphic_16">
          <rect x="1229.2344" y="350.16797" width="15" height="10" fill="url(#Obj_Gradient_10)"/>
          <rect x="1229.2344" y="350.16797" width="15" height="10" stroke="#c2185b" stroke-linecap="butt" stroke-linejoin="round" stroke-width="1"/>
        </g>
        <g id="Graphic_15">
          <title>Text</title>
          <text transform="translate(1254.2344 349.46777)" fill="#333">
            <tspan font-family="Helvetica" font-size="10" fill="#333" x="0" y="10" xml:space="preserve">Data Layer</tspan>
          </text>
        </g>
        <g id="Graphic_14">
          <rect x="1229.2344" y="370.16797" width="15" height="10" fill="url(#Obj_Gradient_11)"/>
          <rect x="1229.2344" y="370.16797" width="15" height="10" stroke="#1976d2" stroke-linecap="butt" stroke-linejoin="round" stroke-width="1"/>
        </g>
        <g id="Graphic_13">
          <title>Text</title>
          <text transform="translate(1254.2344 369.46777)" fill="#333">
            <tspan font-family="Helvetica" font-size="10" fill="#333" x="0" y="10" xml:space="preserve">External Systems</tspan>
          </text>
        </g>
        <g id="Graphic_12">
          <ellipse cx="1236.2344" cy="395.16797" rx="8.0000167832215" ry="5.00001048951348" fill="white"/>
          <ellipse cx="1236.2344" cy="395.16797" rx="8.0000167832215" ry="5.00001048951348" stroke="#00695c" stroke-linecap="butt" stroke-linejoin="round" stroke-width="1"/>
        </g>
        <g id="Graphic_11">
          <title>Text</title>
          <text transform="translate(1254.2344 389.46777)" fill="#333">
            <tspan font-family="Helvetica" font-size="10" fill="#333" x="0" y="10" xml:space="preserve">Data Storage</tspan>
          </text>
        </g>
      </g>
      <g id="Group_2">
        <g id="Graphic_9">
          <path d="M 1214.2344 457.5117 L 1424.2344 457.5117 C 1426.9958 457.5117 1429.2344 459.7503 1429.2344 462.5117 L 1429.2344 572.5117 C 1429.2344 575.27314 1426.9958 577.5117 1424.2344 577.5117 L 1214.2344 577.5117 C 1211.473 577.5117 1209.2344 575.27314 1209.2344 572.5117 L 1209.2344 462.5117 C 1209.2344 459.7503 1211.473 457.5117 1214.2344 457.5117 Z" fill="#f0f8ff"/>
          <path d="M 1214.2344 457.5117 L 1424.2344 457.5117 C 1426.9958 457.5117 1429.2344 459.7503 1429.2344 462.5117 L 1429.2344 572.5117 C 1429.2344 575.27314 1426.9958 577.5117 1424.2344 577.5117 L 1214.2344 577.5117 C 1211.473 577.5117 1209.2344 575.27314 1209.2344 572.5117 L 1209.2344 462.5117 C 1209.2344 459.7503 1211.473 457.5117 1214.2344 457.5117 Z" stroke="#4682b4" stroke-linecap="butt" stroke-linejoin="round" stroke-width="1"/>
        </g>
        <g id="Graphic_8">
          <title>Text</title>
          <text transform="translate(1278.2305 466.2715)" fill="#4682b4">
            <tspan font-family="Helvetica" font-size="12" fill="#4682b4" x="0" y="11" xml:space="preserve">System Metrics</tspan>
          </text>
        </g>
        <g id="Graphic_7">
          <title>Text</title>
          <text transform="translate(1219.2344 487.0415)" fill="#333">
            <tspan font-family="Helvetica" font-size="11" fill="#333" x="0" y="10" xml:space="preserve">Total Files: 2,333</tspan>
          </text>
        </g>
        <g id="Graphic_6">
          <title>Text</title>
          <text transform="translate(1219.2344 502.0415)" fill="#333">
            <tspan font-family="Helvetica" font-size="11" fill="#333" x="0" y="10" xml:space="preserve">Lines of Code: 1.78M</tspan>
          </text>
        </g>
        <g id="Graphic_5">
          <title>Text</title>
          <text transform="translate(1219.2344 517.0415)" fill="#333">
            <tspan font-family="Helvetica" font-size="11" fill="#333" x="0" y="10" xml:space="preserve">Business Functions: 50+</tspan>
          </text>
        </g>
        <g id="Graphic_4">
          <title>Text</title>
          <text transform="translate(1219.2344 532.0415)" fill="#333">
            <tspan font-family="Helvetica" font-size="11" fill="#333" x="0" y="10" xml:space="preserve">Technology Subjects: 40+</tspan>
          </text>
        </g>
        <g id="Graphic_3">
          <title>Text</title>
          <text transform="translate(1219.2344 547.0415)" fill="#333">
            <tspan font-family="Helvetica" font-size="11" fill="#333" x="0" y="10" xml:space="preserve">External Integrations: 8</tspan>
          </text>
        </g>
      </g>
      <g id="Line_172">
        <line x1="509.8594" y1="360.16797" x2="509.8594" y2="373.2328" marker-end="url(#FilledArrow_Marker)" stroke="#666" stroke-linecap="round" stroke-linejoin="round" stroke-width="3"/>
      </g>
      <g id="Line_173">
        <line x1="1027.3828" y1="360.16797" x2="1027.3828" y2="373.2328" marker-end="url(#FilledArrow_Marker)" stroke="#666" stroke-linecap="round" stroke-linejoin="round" stroke-width="3"/>
      </g>
      <g id="Line_174">
        <line x1="766.6289" y1="360.16797" x2="766.6289" y2="373.2328" marker-end="url(#FilledArrow_Marker)" stroke="#666" stroke-linecap="round" stroke-linejoin="round" stroke-width="3"/>
      </g>
      <g id="Line_175">
        <line x1="509.8594" y1="475" x2="509.8594" y2="497.0165" marker-end="url(#FilledArrow_Marker)" stroke="#666" stroke-linecap="round" stroke-linejoin="round" stroke-width="3"/>
      </g>
      <g id="Graphic_182">
        <rect x="339.7852" y="581.2531" width="16.905852" height="6.735938" fill="white"/>
      </g>
      <g id="Line_181">
        <line x1="764.5234" y1="476" x2="764.5234" y2="660.1" marker-end="url(#FilledArrow_Marker)" stroke="#666" stroke-linecap="round" stroke-linejoin="round" stroke-width="3"/>
      </g>
      <g id="Line_185">
        <line x1="506.2617" y1="782.7344" x2="506.2617" y2="795.7992" marker-end="url(#FilledArrow_Marker)" stroke="#666" stroke-linecap="round" stroke-linejoin="round" stroke-width="3"/>
      </g>
      <g id="Line_184">
        <line x1="1023.7852" y1="782.7344" x2="1023.7852" y2="795.7992" marker-end="url(#FilledArrow_Marker)" stroke="#666" stroke-linecap="round" stroke-linejoin="round" stroke-width="3"/>
      </g>
      <g id="Line_183">
        <line x1="763.03125" y1="782.7344" x2="763.03125" y2="795.7992" marker-end="url(#FilledArrow_Marker)" stroke="#666" stroke-linecap="round" stroke-linejoin="round" stroke-width="3"/>
      </g>
      <g id="Line_188">
        <line x1="969.7754" y1="644.7155" x2="969.7754" y2="669.732" marker-end="url(#FilledArrow_Marker_2)" stroke="#67a038" stroke-linecap="round" stroke-linejoin="round" stroke-dasharray="8.0,8.0" stroke-width="2"/>
      </g>
      <g id="Line_190">
        <line x1="967.6941" y1="511.1987" x2="967.6941" y2="486.1822" marker-end="url(#FilledArrow_Marker_2)" stroke="#67a038" stroke-linecap="round" stroke-linejoin="round" stroke-dasharray="8.0,8.0" stroke-width="2"/>
      </g>
      <g id="Graphic_191">
        <rect x="757.2008" y="582.0656" width="16.905852" height="6.735938" fill="#f5f5f5"/>
      </g>
      <g id="Line_189">
        <line x1="781.36475" y1="585.4336" x2="754.1119" y2="585.4336" marker-end="url(#FilledArrow_Marker_2)" stroke="#67a038" stroke-linecap="round" stroke-linejoin="round" stroke-dasharray="8.0,8.0" stroke-width="2"/>
      </g>
      <g id="Line_192">
        <line x1="277.6172" y1="584.6211" x2="359.12344" y2="584.6211" marker-end="url(#FilledArrow_Marker)" stroke="#666" stroke-linecap="round" stroke-linejoin="round" stroke-width="3"/>
      </g>
    </g>
  </g>
</svg>
